SplineFontDB: 3.0
FontName: Nika-Regular
FullName: Nika Regular
FamilyName: Nika
Weight: Regular
Copyright: Copyright (c) 2016 Copyright Holder Persian Font Store (info@font-store.ir), with Reserved Font Name "Nika"
UComments: "2015-5-13: Created with FontForge (http://fontforge.org)"
Version: Version:0.2.2;RFB:1.2.5;Building:2016-04-28 17:22:16.557178
FONDName: RITA
ItalicAngle: 0
UnderlinePosition: 500
UnderlineWidth: 59
Ascent: 800
Descent: 500
InvalidEm: 0
sfntRevision: 0x00010000
LayerCount: 2
Layer: 0 0 "Back" 1
Layer: 1 0 "Fore" 0
PreferredKerning: 4
XUID: [1021 828 -1901974348 32649]
StyleMap: 0x0040
FSType: 0
OS2Version: 0
OS2_WeightWidthSlopeOnly: 0
OS2_UseTypoMetrics: 0
CreationTime: 1431477301
ModificationTime: 1461847936
PfmFamily: 33
TTFWeight: 400
TTFWidth: 5
LineGap: 100
VLineGap: 0
Panose: 2 0 5 3 0 0 0 0 0 0
OS2TypoAscent: 800
OS2TypoAOffset: 0
OS2TypoDescent: -500
OS2TypoDOffset: 0
OS2TypoLinegap: 100
OS2WinAscent: 1100
OS2WinAOffset: 0
OS2WinDescent: 700
OS2WinDOffset: 0
HheadAscent: 1100
HheadAOffset: 0
HheadDescent: -700
HheadDOffset: 0
OS2SubXSize: 780
OS2SubYSize: 839
OS2SubXOff: -107
OS2SubYOff: 168
OS2SupXSize: 780
OS2SupYSize: 839
OS2SupXOff: 369
OS2SupYOff: 575
OS2StrikeYSize: 59
OS2StrikeYPos: 310
OS2Vendor: 'RITA'
OS2CodePages: 00000040.00000000
OS2UnicodeRanges: 80002003.80002000.00000008.00000000
MacStyle: 0
Lookup: 4 1 1 "'ccmp' Glyph Composition/Decomposition in Arabic lookup 5" { "'ccmp' Glyph Composition/Decomposition in Arabic lookup 5-1"  } ['ccmp' ('DFLT' <'dflt' > 'arab' <'dflt' > ) ]
Lookup: 1 9 0 "'isol' Isolated Forms in Latin lookup 1" { "'isol' Isolated Forms in Latin lookup 1-1"  } ['isol' ('DFLT' <'dflt' > 'arab' <'dflt' > ) ]
Lookup: 1 9 0 "'fina' Terminal Forms in Arabic lookup 3" { "'fina' Terminal Forms in Arabic lookup 3-1"  } ['fina' ('DFLT' <'dflt' > 'arab' <'dflt' > ) ]

StartChar: _.alef.isol
Encoding: 65536 -1 0
GlifName: _.alef.isol
Width: 238
VWidth: 1304
GlyphClass: 2
Flags: HMW
LayerCount: 2
Fore
SplineSet
75 702 m 0
 75 735 81 744 112 770 c 2
 135 790 l 2
 142 796 148 800 153 800 c 0
 160 800 163 793 163 779 c 2
 163 20 l 2
 163 6 129 -23 111 -23 c 0
 104 -23 99 -20 99 -10 c 2
 76 667 l 2
 75 681 75 693 75 702 c 0
EndSplineSet
Colour: ffda6b
EndChar

StartChar: _.alef.fina
Encoding: 65537 -1 1
GlifName: _.alef.fina
Width: 314
VWidth: 1304
GlyphClass: 2
Flags: HMW
LayerCount: 2
Fore
SplineSet
75 702 m 0
 75 735 81 744 112 770 c 2
 135 790 l 2
 142 796 148 800 153 800 c 0
 160 800 163 793 163 779 c 2
 163 160 l 1
 169 105 273 100 314 100 c 1
 314 0 l 1
 299 0 l 2
 209 0 93 36 93 141 c 1
 76 667 l 2
 75 681 75 693 75 702 c 0
EndSplineSet
Colour: ffda6b
EndChar

StartChar: _.beh.isol
Encoding: 65540 -1 4
GlifName: _.beh.isol
Width: 955
VWidth: 1304
GlyphClass: 2
UnlinkRmOvrlpSave: 1
Flags: HMW
LayerCount: 2
Fore
SplineSet
75 192 m 0
 75 231 83 277 99 329 c 0
 101 335 110 337 115 335 c 2
 153 320 l 2
 158 318 163 311 159 301 c 0
 149 272 145 247 145 225 c 0
 145 115 254 80 390 80 c 0
 528 80 695 117 802 151 c 1
 802 153 802 156 802 158 c 0
 802 207 777 293 761 345 c 0
 756 360 764 367 769 372 c 2
 818 413 l 2
 830 424 838 413 840 407 c 0
 866 332 880 268 880 213 c 0
 880 202 879 192 878 181 c 1
 878 178 l 1
 874 128 847 71 811 59 c 0
 726 32 536 -21 370 -21 c 0
 211 -21 75 27 75 192 c 0
EndSplineSet
Colour: ffda6b
EndChar

StartChar: _.beh.fina
Encoding: 65541 -1 5
GlifName: _.beh.fina
Width: 1069
VWidth: 1304
GlyphClass: 2
UnlinkRmOvrlpSave: 1
Flags: HMW
LayerCount: 2
Fore
SplineSet
75 193 m 0
 75 232 83 277 99 329 c 0
 101 335 110 337 116 335 c 2
 153 320 l 2
 158 318 163 311 159 301 c 0
 149 272 145 247 145 225 c 0
 145 115 254 80 390 80 c 0
 536 80 712 121 818 156 c 1
 802 200 792 251 782 304 c 0
 781 313 785 324 795 326 c 2
 839 340 l 2
 846 342 856 334 857 327 c 0
 896 184 895 100 1050 100 c 2
 1069 100 l 1
 1069 0 l 1
 1050 0 l 2
 947 0 888 35 850 93 c 1
 839 76 825 64 810 59 c 0
 725 32 535 -21 370 -21 c 0
 211 -21 75 28 75 193 c 0
EndSplineSet
Colour: ffda6b
EndChar

StartChar: _.beh.medi
Encoding: 65542 -1 6
GlifName: _.beh.medi
Width: 433
VWidth: 1304
GlyphClass: 2
UnlinkRmOvrlpSave: 1
Flags: HMW
LayerCount: 2
Fore
SplineSet
-50 50 m 0
 -49 75 -26 99 -1 100 c 1
 19 100 l 2
 81 100 200 107 200 166 c 2
 200 290 l 2
 200 304 202 315 220 320 c 2
 254 329 l 2
 270 333 279 327 279 310 c 2
 279 166 l 2
 279 119 341 100 433 100 c 1
 433 -0 l 1
 325 0 266 30 236 69 c 1
 200 28 129 0 18 -0 c 2
 -2 -0 l 1
 -27 1 -50 24 -50 50 c 0
EndSplineSet
Colour: ffda6b
EndChar

StartChar: _.beh.init
Encoding: 65543 -1 7
GlifName: _.beh.init
Width: 363
VWidth: 1197
GlyphClass: 1
UnlinkRmOvrlpSave: 1
Flags: HMW
LayerCount: 2
Fore
SplineSet
-50 49 m 0
 -50 76 -27 100 -1 100 c 2
 18 100 l 2
 109 100 169 117 207 145 c 1
 208 149 208 154 208 160 c 0
 208 210 182 313 168 354 c 0
 164 369 171 376 177 381 c 2
 226 425 l 2
 238 435 246 424 248 417 c 0
 272 347 288 288 288 209 c 0
 288 75 214 0 18 -0 c 2
 -1 -0 l 2
 -25 0 -50 24 -50 49 c 0
EndSplineSet
Colour: ffda6b
EndChar

StartChar: _.heh.isol
Encoding: 65544 -1 8
GlifName: _.heh.isol
Width: 797
VWidth: 1304
GlyphClass: 1
UnlinkRmOvrlpSave: 1
Flags: HMW
LayerCount: 2
Fore
SplineSet
77 283 m 0
 114 394 163 429 238 429 c 0
 367 429 474 288 674 288 c 0
 675 288 676 288 677 288 c 2
 703 288 l 2
 729 288 720 268 718 261 c 2
 700 204 l 2
 698 195 688 188 677 188 c 2
 655 188 l 2
 639 188 623 188 607 189 c 0
 339 171 137 18 137 -120 c 0
 137 -215 232 -301 437 -301 c 0
 486 -301 542 -296 604 -285 c 0
 613 -283 626 -282 624 -296 c 2
 612 -360 l 2
 608 -380 598 -382 582 -384 c 0
 522 -394 470 -399 423 -399 c 0
 148 -399 79 -244 79 -131 c 0
 79 20 202 182 409 252 c 1
 336 288 278 327 219 327 c 0
 218 327 218 327 217 327 c 0
 178 327 146 305 128 261 c 0
 124 250 114 244 102 250 c 1
 86 256 l 2
 77 260 71 267 77 283 c 0
EndSplineSet
Colour: ffda6b
EndChar

StartChar: _.heh.fina
Encoding: 65545 -1 9
GlifName: _.heh.fina
Width: 824
VWidth: 1304
GlyphClass: 1
UnlinkRmOvrlpSave: 1
Flags: HMW
LayerCount: 2
Fore
SplineSet
77 283 m 0
 114 394 163 429 238 429 c 0
 367 429 474 288 674 288 c 0
 675 288 676 288 677 288 c 2
 703 288 l 2
 729 288 720 268 718 261 c 2
 700 204 l 2
 698 195 688 188 677 188 c 2
 624 188 l 1
 641 131 677 100 769 100 c 2
 824 100 l 1
 824 0 l 1
 769 0 l 1
 613 5 565 81 544 183 c 1
 308 146 137 7 137 -120 c 0
 137 -215 232 -301 437 -301 c 0
 486 -301 542 -296 604 -285 c 0
 613 -283 626 -282 624 -296 c 2
 612 -360 l 2
 608 -380 598 -382 582 -384 c 0
 522 -394 470 -399 423 -399 c 0
 148 -399 79 -244 79 -131 c 0
 79 20 202 182 409 252 c 1
 336 288 278 327 219 327 c 0
 218 327 218 327 217 327 c 0
 178 327 146 305 128 261 c 0
 124 250 114 244 102 250 c 1
 86 256 l 2
 77 260 71 267 77 283 c 0
EndSplineSet
Colour: ffda6b
EndChar

StartChar: _.heh.medi
Encoding: 65546 -1 10
GlifName: _.heh.medi
Width: 796
VWidth: 1304
GlyphClass: 1
UnlinkRmOvrlpSave: 1
Flags: HMW
LayerCount: 2
Fore
SplineSet
-50 50 m 0
 -50 75 -26 100 -1 100 c 2
 67 100 l 2
 236 100 337 186 472 245 c 1
 378 285 309 340 240 340 c 0
 199 340 168 316 149 273 c 0
 145 262 136 256 124 261 c 2
 108 268 l 2
 99 272 93 279 99 295 c 0
 136 406 184 442 259 442 c 0
 387 442 494 300 693 300 c 0
 695 300 696 300 698 300 c 2
 724 300 l 2
 750 300 741 280 739 273 c 2
 722 215 l 2
 720 206 709 200 698 200 c 2
 687 200 l 1
 661 199 637 197 615 193 c 1
 631 133 666 100 761 100 c 2
 796 100 l 1
 796 -0 l 1
 761 -0 l 1
 610 5 559 76 538 173 c 1
 384 119 288 0 90 -0 c 2
 -1 -0 l 2
 -26 0 -50 24 -50 50 c 0
EndSplineSet
Colour: ffda6b
EndChar

StartChar: _.heh.init
Encoding: 65547 -1 11
GlifName: _.heh.init
Width: 817
VWidth: 1304
GlyphClass: 1
UnlinkRmOvrlpSave: 1
Flags: HMW
LayerCount: 2
Fore
SplineSet
-50 50 m 0
 -50 75 -26 100 -1 100 c 2
 67 100 l 2
 236 100 337 186 472 245 c 1
 378 285 309 340 240 340 c 0
 199 340 168 316 149 273 c 0
 145 262 136 256 124 261 c 2
 108 268 l 2
 99 272 93 279 99 295 c 0
 136 406 184 442 259 442 c 0
 387 442 494 300 693 300 c 0
 695 300 696 300 698 300 c 2
 724 300 l 2
 750 300 741 280 739 273 c 2
 722 215 l 2
 720 206 709 200 698 200 c 2
 687 200 l 1
 431 196 345 0 90 -0 c 2
 -1 -0 l 2
 -26 0 -50 24 -50 50 c 0
EndSplineSet
Colour: ffda6b
EndChar

StartChar: _.sin.isol
Encoding: 65548 -1 12
GlifName: _.sin.isol
Width: 1371
VWidth: 1304
GlyphClass: 1
UnlinkRmOvrlpSave: 1
Flags: HMW
LayerCount: 2
Fore
SplineSet
75 -37 m 0
 75 21 88 90 119 170 c 0
 123 180 130 185 141 181 c 2
 173 168 l 1
 183 163 186 155 181 144 c 0
 158 83 147 32 147 -11 c 0
 147 -142 242 -196 349 -196 c 0
 461 -196 587 -137 632 -47 c 0
 632 -45 633 -43 633 -41 c 0
 633 12 590 157 572 210 c 0
 568 225 575 232 581 237 c 2
 630 280 l 1
 651 297 657 259 662 244 c 0
 696 136 766 80 825 80 c 0
 867 80 903 108 917 167 c 2
 946 287 l 2
 947 294 958 301 965 299 c 2
 1009 287 l 2
 1018 285 1023 273 1021 264 c 2
 988 112 l 1
 1016 92 1063 81 1089 81 c 0
 1123 81 1185 92 1216 114 c 1
 1217 118 1217 124 1217 130 c 0
 1217 180 1191 284 1178 324 c 0
 1173 340 1180 347 1185 351 c 2
 1234 394 l 2
 1246 405 1255 394 1257 388 c 0
 1281 316 1296 248 1296 188 c 0
 1296 148 1289 112 1274 81 c 0
 1243 16 1171 -21 1098 -21 c 0
 1046 -20 982 -8 938 28 c 1
 906 -3 866 -19 824 -19 c 0
 784 -19 742 -4 704 28 c 1
 704 23 704 18 704 13 c 0
 704 -184 517 -300 347 -300 c 0
 205 -300 75 -219 75 -37 c 0
EndSplineSet
Colour: ffda6b
EndChar

StartChar: _.sin.fina
Encoding: 65549 -1 13
GlifName: _.sin.fina
Width: 1468
VWidth: 1304
GlyphClass: 1
UnlinkRmOvrlpSave: 1
Flags: HMW
LayerCount: 2
Fore
SplineSet
75 -37 m 0
 75 21 88 90 119 170 c 0
 123 180 130 185 141 181 c 2
 173 168 l 1
 183 163 186 155 181 144 c 0
 158 83 147 32 147 -11 c 0
 147 -142 242 -196 349 -196 c 0
 461 -196 587 -137 632 -47 c 0
 632 -45 633 -43 633 -41 c 0
 633 12 590 157 572 210 c 0
 568 225 575 232 581 237 c 2
 630 280 l 1
 651 297 657 259 662 244 c 0
 696 136 766 80 825 80 c 0
 867 80 903 108 917 167 c 2
 946 287 l 2
 947 294 958 301 965 299 c 2
 1009 287 l 2
 1018 285 1023 273 1021 264 c 2
 993 136 l 1
 1007 100 1085 81 1119 81 c 0
 1152 81 1206 91 1238 111 c 1
 1208 164 1195 231 1181 304 c 0
 1180 313 1185 324 1195 326 c 2
 1238 340 l 2
 1245 342 1256 334 1257 327 c 0
 1298 169 1295 100 1450 100 c 2
 1468 100 l 1
 1468 0 l 1
 1450 0 l 2
 1375 0 1323 20 1285 52 c 1
 1248 5 1189 -21 1127 -21 c 0
 1069 -20 994 -4 951 44 c 1
 918 3 872 -19 824 -19 c 0
 784 -19 742 -4 704 28 c 1
 704 23 704 18 704 13 c 0
 704 -184 517 -300 347 -300 c 0
 205 -300 75 -219 75 -37 c 0
EndSplineSet
Colour: ffda6b
EndChar

StartChar: _.sin.medi
Encoding: 65550 -1 14
GlifName: _.sin.medi
Width: 1062
VWidth: 1304
GlyphClass: 1
UnlinkRmOvrlpSave: 1
Flags: HMW
LayerCount: 2
Fore
SplineSet
-50 50 m 0
 -49 76 -25 100 0 100 c 0
 118 100 159 124 177 202 c 2
 197 287 l 2
 198 294 210 301 216 299 c 2
 260 287 l 2
 270 285 275 273 273 264 c 2
 244 135 l 1
 267 103 322 79 375 79 c 0
 429 79 482 103 497 167 c 2
 526 287 l 2
 527 294 538 301 545 299 c 2
 589 287 l 2
 598 285 603 273 601 264 c 2
 574 139 l 1
 585 102 664 81 698 81 c 0
 731 81 788 91 820 111 c 1
 792 159 772 219 750 283 c 0
 748 292 750 303 759 308 c 2
 801 327 l 2
 807 329 818 324 820 317 c 0
 871 184 891 100 1024 100 c 0
 1025 100 1026 100 1027 100 c 2
 1062 100 l 1
 1062 -0 l 1
 1027 -0 l 2
 1021 0 1016 -1 1010 -1 c 0
 946 -1 901 19 866 52 c 1
 830 5 770 -21 708 -21 c 0
 649 -20 573 -4 530 45 c 1
 490 -1 430 -20 371 -20 c 0
 299 -20 229 9 194 53 c 1
 158 20 103 0 24 -0 c 2
 0 -0 l 2
 -26 0 -50 24 -50 50 c 0
EndSplineSet
Colour: ffda6b
EndChar

StartChar: _.sin.init
Encoding: 65551 -1 15
GlifName: _.sin.init
Width: 961
VWidth: 1304
GlyphClass: 1
UnlinkRmOvrlpSave: 1
Flags: HMW
LayerCount: 2
Fore
SplineSet
-50 50 m 0
 -49 76 -25 100 0 100 c 0
 119 100 159 124 177 202 c 2
 197 287 l 2
 198 294 209 301 216 299 c 2
 260 287 l 2
 270 285 275 273 273 264 c 2
 244 135 l 1
 267 103 322 79 375 79 c 0
 429 79 482 103 497 167 c 2
 526 287 l 2
 527 294 538 301 545 299 c 2
 589 287 l 2
 598 285 603 273 601 264 c 2
 569 118 l 1
 596 95 651 81 679 81 c 0
 713 81 775 92 806 114 c 1
 807 118 807 124 807 130 c 0
 807 180 780 284 767 324 c 0
 762 340 770 347 775 351 c 2
 824 394 l 2
 836 405 844 394 846 388 c 0
 870 316 886 248 886 188 c 0
 886 148 878 112 863 81 c 0
 832 16 760 -21 687 -21 c 0
 633 -20 563 -6 520 36 c 1
 480 -3 424 -20 370 -20 c 0
 298 -20 228 9 194 53 c 1
 157 20 103 0 24 -0 c 2
 -1 -0 l 2
 -26 0 -50 24 -50 50 c 0
EndSplineSet
Colour: ffda6b
EndChar

StartChar: _.sad.isol
Encoding: 65552 -1 16
GlifName: _.sad.isol
Width: 1434
VWidth: 1304
GlyphClass: 1
UnlinkRmOvrlpSave: 1
Flags: HMW
LayerCount: 2
Fore
SplineSet
75 -37 m 0
 75 21 88 90 119 170 c 0
 123 180 130 185 141 181 c 2
 173 168 l 1
 183 163 186 155 181 144 c 0
 158 83 147 32 147 -11 c 0
 147 -142 242 -196 349 -196 c 0
 461 -196 587 -137 632 -47 c 0
 632 -45 633 -43 633 -41 c 0
 633 12 590 157 572 210 c 0
 568 225 575 232 581 237 c 2
 629 279 l 1
 629 280 l 1
 640 291 648 280 652 273 c 1
 657 258 l 1
 677 209 706 156 753 120 c 1
 799 163 859 224 919 278 c 0
 984 337 1059 406 1153 406 c 0
 1291 406 1359 262 1359 199 c 0
 1359 167 1355 109 1314 82 c 0
 1232 27 1098 -20 879 -20 c 0
 803 -20 748 -4 704 29 c 1
 704 24 704 19 704 14 c 0
 704 -184 517 -300 347 -300 c 0
 205 -300 75 -219 75 -37 c 0
801 93 m 1
 821 84 842 81 867 80 c 0
 1050 80 1192 115 1286 159 c 1
 1263 233 1205 299 1127 299 c 0
 1068 299 1001 273 941 219 c 2
 801 93 l 1
EndSplineSet
Colour: ffda6b
EndChar

StartChar: _.sad.fina
Encoding: 65553 -1 17
GlifName: _.sad.fina
Width: 1487
VWidth: 1304
GlyphClass: 1
UnlinkRmOvrlpSave: 1
Flags: HMW
LayerCount: 2
Fore
SplineSet
75 -37 m 0
 75 21 88 90 119 170 c 0
 123 180 130 185 141 181 c 2
 173 168 l 1
 183 163 186 155 181 144 c 0
 158 83 147 32 147 -11 c 0
 147 -142 242 -196 349 -196 c 0
 461 -196 587 -137 632 -47 c 0
 632 -45 633 -43 633 -41 c 0
 633 12 590 157 572 210 c 0
 568 225 575 232 581 237 c 2
 629 279 l 1
 629 280 l 1
 640 291 648 280 652 273 c 1
 657 258 l 1
 677 209 706 156 753 120 c 1
 799 163 859 224 919 278 c 0
 984 337 1059 406 1153 406 c 0
 1291 406 1359 262 1359 199 c 0
 1359 182 1357 157 1350 132 c 1
 1373 110 1423 100 1487 100 c 1
 1487 0 l 1
 1379 0 1321 30 1291 68 c 1
 1207 19 1078 -20 879 -20 c 0
 803 -20 748 -4 704 29 c 1
 704 24 704 19 704 14 c 0
 704 -184 517 -300 347 -300 c 0
 205 -300 75 -219 75 -37 c 0
801 93 m 1
 821 84 842 81 867 80 c 0
 1050 80 1192 115 1286 159 c 1
 1263 233 1205 299 1127 299 c 0
 1068 299 1001 273 941 219 c 2
 801 93 l 1
EndSplineSet
Colour: ffda6b
EndChar

StartChar: _.sad.medi
Encoding: 65554 -1 18
GlifName: _.sad.medi
Width: 1017
VWidth: 1304
GlyphClass: 1
UnlinkRmOvrlpSave: 1
Flags: HMW
LayerCount: 2
Fore
SplineSet
-50 49 m 0
 -50 76 -27 100 -1 100 c 0
 64 100 115 114 151 132 c 1
 139 154 127 179 115 207 c 0
 110 218 109 225 121 239 c 2
 161 280 l 2
 170 290 176 285 181 273 c 0
 206 225 228 160 281 119 c 1
 327 162 389 224 449 278 c 0
 515 337 590 406 684 406 c 0
 822 406 889 262 889 199 c 0
 889 182 888 157 879 132 c 1
 902 110 952 100 1017 100 c 1
 1017 -0 l 1
 909 0 852 30 822 68 c 1
 738 19 609 -20 408 -20 c 0
 310 -20 245 9 197 64 c 1
 164 31 100 0 -1 -0 c 0
 -25 0 -50 24 -50 49 c 0
330 92 m 1
 352 85 378 80 408 80 c 0
 583 80 723 116 817 159 c 1
 792 234 736 299 658 299 c 0
 598 299 532 273 472 219 c 2
 330 92 l 1
EndSplineSet
Colour: ffda6b
EndChar

StartChar: _.sad.init
Encoding: 65555 -1 19
GlifName: _.sad.init
Width: 964
VWidth: 1304
GlyphClass: 1
UnlinkRmOvrlpSave: 1
Flags: HMW
LayerCount: 2
Fore
SplineSet
-50 49 m 0
 -50 76 -27 100 -1 100 c 0
 64 100 115 114 151 132 c 1
 139 154 127 179 115 207 c 0
 110 218 109 225 121 239 c 2
 161 280 l 2
 170 290 176 285 181 273 c 0
 206 225 228 160 281 119 c 1
 327 162 389 224 449 278 c 0
 515 337 590 406 684 406 c 0
 822 406 889 262 889 199 c 0
 889 167 886 109 844 82 c 0
 763 27 628 -20 408 -20 c 0
 310 -20 245 9 197 64 c 1
 164 31 100 0 -1 -0 c 0
 -25 0 -50 24 -50 49 c 0
330 92 m 1
 352 85 378 80 408 80 c 0
 583 80 723 116 817 159 c 1
 792 234 736 299 658 299 c 0
 598 299 532 273 472 219 c 2
 330 92 l 1
EndSplineSet
Colour: ffda6b
EndChar

StartChar: _.ta.isol
Encoding: 65556 -1 20
GlifName: _.ta.isol
Width: 913
VWidth: 1304
GlyphClass: 1
UnlinkRmOvrlpSave: 1
Flags: HMW
LayerCount: 2
Fore
SplineSet
75 101 m 0
 75 113 79 122 92 122 c 0
 96 122 102 121 108 119 c 0
 128 113 164 104 206 97 c 1
 215 104 226 114 237 125 c 0
 255 146 269 179 269 209 c 1
 253 666 l 2
 252 680 252 692 252 701 c 0
 252 734 258 743 289 769 c 1
 312 790 l 2
 319 796 325 799 330 799 c 0
 337 799 340 793 340 779 c 2
 340 225 l 1
 358 243 379 261 397 278 c 0
 463 337 538 406 632 406 c 0
 770 406 838 262 838 199 c 0
 838 167 834 109 792 82 c 0
 711 27 576 -20 356 -20 c 0
 245 -20 142 0 108 21 c 0
 99 26 75 73 75 101 c 0
272 86 m 1
 300 82 326 80 347 80 c 0
 530 80 671 115 765 159 c 1
 740 233 684 299 606 299 c 0
 546 299 480 273 420 219 c 2
 272 86 l 1
EndSplineSet
Colour: ffda6b
EndChar

StartChar: _.ta.fina
Encoding: 65557 -1 21
GlifName: _.ta.fina
Width: 966
VWidth: 1304
GlyphClass: 1
UnlinkRmOvrlpSave: 1
Flags: HMW
LayerCount: 2
Fore
SplineSet
75 101 m 0
 75 113 79 122 92 122 c 0
 96 122 102 121 108 119 c 0
 128 113 164 104 206 97 c 1
 215 104 226 114 237 125 c 0
 255 146 269 179 269 209 c 1
 253 666 l 2
 252 680 252 692 252 701 c 0
 252 734 258 743 289 769 c 1
 312 790 l 2
 319 796 325 799 330 799 c 0
 337 799 340 793 340 779 c 2
 340 225 l 1
 358 243 379 261 397 278 c 0
 463 337 538 406 632 406 c 0
 770 406 838 262 838 199 c 0
 838 182 837 157 828 132 c 1
 851 110 901 100 966 100 c 1
 966 0 l 1
 858 0 800 30 770 68 c 1
 686 19 557 -20 356 -20 c 0
 245 -20 142 0 108 21 c 0
 99 26 75 73 75 101 c 0
272 86 m 1
 300 82 326 80 347 80 c 0
 530 80 671 115 765 159 c 1
 740 233 684 299 606 299 c 0
 546 299 480 273 420 219 c 2
 272 86 l 1
EndSplineSet
Colour: ffda6b
EndChar

StartChar: _.ta.medi
Encoding: 65558 -1 22
GlifName: _.ta.medi
Width: 797
VWidth: 1304
GlyphClass: 1
UnlinkRmOvrlpSave: 1
Flags: HMW
LayerCount: 2
Fore
SplineSet
-50 50 m 0
 -50 75 -26 100 -1 100 c 2
 41 100 l 1
 48 107 58 115 68 125 c 0
 86 146 100 179 100 209 c 1
 84 666 l 2
 83 680 83 692 83 701 c 0
 83 734 89 743 120 769 c 1
 143 790 l 2
 150 796 156 799 161 799 c 0
 168 799 172 793 172 779 c 2
 172 225 l 1
 190 243 210 261 228 278 c 0
 294 337 369 406 463 406 c 0
 601 406 669 262 669 199 c 0
 669 182 668 157 659 132 c 1
 682 110 732 100 797 100 c 1
 797 -0 l 1
 689 0 630 30 600 68 c 1
 518 24 391 1 194 -0 c 1
 0 -0 l 1
 -25 1 -50 24 -50 50 c 0
119 100 m 1
 178 100 l 2
 361 100 501 123 595 161 c 1
 570 235 514 299 438 299 c 0
 378 299 312 273 252 219 c 2
 119 100 l 1
EndSplineSet
Colour: ffda6b
EndChar

StartChar: _.ta.init
Encoding: 65559 -1 23
GlifName: _.ta.init
Width: 744
VWidth: 1304
GlyphClass: 1
UnlinkRmOvrlpSave: 1
Flags: HMW
LayerCount: 2
Fore
SplineSet
-50 50 m 0
 -50 75 -26 100 -1 100 c 2
 41 100 l 1
 48 107 58 115 68 125 c 0
 86 146 100 179 100 209 c 1
 84 666 l 2
 83 680 83 692 83 701 c 0
 83 734 89 743 120 769 c 1
 143 790 l 2
 150 796 156 799 161 799 c 0
 168 799 172 793 172 779 c 2
 172 225 l 1
 190 243 210 261 228 278 c 0
 294 337 369 406 463 406 c 0
 601 406 669 262 669 199 c 0
 669 167 665 109 623 82 c 0
 543 27 411 1 194 -0 c 1
 0 -0 l 1
 -25 1 -50 24 -50 50 c 0
119 100 m 1
 178 100 l 2
 361 100 501 123 595 161 c 1
 570 235 514 299 438 299 c 0
 378 299 312 273 252 219 c 2
 119 100 l 1
EndSplineSet
Colour: ffda6b
EndChar

StartChar: _.ein.isol
Encoding: 65560 -1 24
GlifName: _.ein.isol
Width: 708
VWidth: 1304
GlyphClass: 1
UnlinkRmOvrlpSave: 1
Flags: HMW
LayerCount: 2
Fore
SplineSet
204 459 m 1
 245 543 320 574 392 574 c 0
 444 574 483 556 545 534 c 0
 563 528 563 518 559 508 c 2
 549 481 l 2
 545 470 539 469 523 473 c 0
 500 479 477 481 452 481 c 0
 391 481 328 464 277 431 c 1
 283 357 335 288 388 245 c 1
 447 270 522 287 618 304 c 0
 635 306 634 289 633 280 c 2
 623 239 l 2
 621 232 614 213 597 208 c 0
 542 193 472 177 406 149 c 0
 395 145 386 140 375 135 c 1
 375 136 l 1
 230 76 134 -25 134 -120 c 0
 134 -215 229 -301 434 -301 c 0
 483 -301 539 -296 601 -285 c 0
 610 -283 624 -282 622 -296 c 2
 609 -360 l 2
 605 -380 596 -382 579 -384 c 0
 519 -394 466 -399 419 -399 c 0
 144 -399 75 -244 75 -131 c 0
 75 -9 154 119 293 200 c 1
 237 252 195 335 195 405 c 0
 195 424 198 442 204 458 c 1
 204 459 l 1
EndSplineSet
Colour: ffda6b
EndChar

StartChar: _.ein.fina
Encoding: 65561 -1 25
GlifName: _.ein.fina
Width: 705
VWidth: 1304
GlyphClass: 1
UnlinkRmOvrlpSave: 1
Flags: HMW
LayerCount: 2
Fore
SplineSet
75 289 m 2
 98 410 l 1
 164 447 300 490 410 490 c 0
 501 490 573 461 573 373 c 0
 573 365 572 355 571 346 c 0
 567 284 516 217 441 162 c 1
 505 129 588 100 689 100 c 2
 705 100 l 1
 705 -0 l 1
 689 -0 l 2
 545 0 442 52 366 109 c 1
 254 47 183 -39 183 -120 c 0
 183 -215 278 -301 483 -301 c 0
 532 -301 588 -296 650 -285 c 0
 659 -283 673 -282 671 -296 c 2
 659 -360 l 2
 655 -380 645 -382 628 -384 c 0
 568 -394 515 -399 468 -399 c 0
 193 -399 124 -244 124 -131 c 0
 124 -24 186 89 294 170 c 1
 227 231 175 289 78 289 c 0
 77 289 76 289 75 289 c 2
188 347 m 1
 252 321 298 261 361 213 c 1
 448 261 508 318 508 349 c 0
 508 353 507 356 505 359 c 0
 484 380 449 388 407 388 c 0
 340 388 256 367 188 347 c 1
EndSplineSet
Colour: ffda6b
EndChar

StartChar: _.ein.medi
Encoding: 65562 -1 26
GlifName: _.ein.medi
Width: 633
VWidth: 1304
GlyphClass: 1
UnlinkRmOvrlpSave: 1
Flags: HMW
LayerCount: 2
Fore
SplineSet
531 343 m 0
 531 257 486 199 403 136 c 1
 456 114 523 100 617 100 c 2
 633 100 l 1
 633 -0 l 1
 616 -0 l 2
 476 0 387 37 321 84 c 1
 230 34 124 0 35 -0 c 2
 -1 -0 l 2
 -25 0 -50 24 -50 49 c 0
 -50 76 -27 100 -1 100 c 2
 21 100 l 2
 97 100 175 120 243 148 c 1
 180 206 128 260 33 260 c 1
 58 380 l 1
 125 416 260 459 369 459 c 0
 459 459 531 430 531 343 c 0
146 317 m 1
 211 290 250 232 318 183 c 1
 407 231 466 288 466 319 c 0
 466 323 465 327 463 330 c 0
 442 351 407 358 365 358 c 0
 298 358 214 337 146 317 c 1
EndSplineSet
Colour: ffda6b
EndChar

StartChar: _.ein.init
Encoding: 65563 -1 27
GlifName: _.ein.init
Width: 593
VWidth: 1304
GlyphClass: 1
UnlinkRmOvrlpSave: 1
Flags: HMW
LayerCount: 2
Fore
SplineSet
-50 50 m 0
 -50 75 -27 99 -2 100 c 0
 73 100 129 105 173 114 c 1
 124 166 90 241 90 305 c 0
 90 324 93 342 99 358 c 1
 140 443 214 474 286 474 c 0
 338 474 378 456 440 434 c 0
 458 427 458 417 454 407 c 2
 444 381 l 2
 440 370 434 369 418 373 c 0
 395 379 371 381 346 381 c 0
 285 381 222 364 170 331 c 1
 177 256 230 187 284 144 c 1
 341 160 400 176 503 176 c 0
 520 176 520 161 516 152 c 2
 504 120 l 2
 500 108 499 102 481 100 c 0
 310 78 251 0 0 -0 c 1
 -25 1 -50 24 -50 50 c 0
EndSplineSet
Colour: ffda6b
EndChar

StartChar: _.feh.isol
Encoding: 65564 -1 28
GlifName: _.feh.isol
Width: 953
VWidth: 1304
GlyphClass: 1
UnlinkRmOvrlpSave: 1
Flags: HMW
LayerCount: 2
Fore
SplineSet
75 193 m 0
 75 232 83 277 99 329 c 0
 101 335 110 337 116 335 c 2
 153 320 l 2
 158 318 163 311 159 301 c 0
 149 272 145 247 145 225 c 0
 145 115 253 80 388 80 c 0
 529 80 689 116 796 150 c 1
 797 168 798 187 798 204 c 1
 766 192 731 189 687 189 c 0
 585 189 540 257 540 322 c 0
 540 328 540 334 541 340 c 0
 555 480 625 589 704 589 c 0
 815 589 878 402 878 241 c 0
 878 165 864 77 810 59 c 0
 725 32 535 -21 370 -21 c 0
 211 -21 75 28 75 193 c 0
690 490 m 0
 642 490 601 409 601 354 c 0
 601 298 651 290 687 290 c 0
 723 290 759 292 791 304 c 1
 775 416 733 489 690 490 c 0
EndSplineSet
Colour: ffda6b
EndChar

StartChar: _.feh.fina
Encoding: 65565 -1 29
GlifName: _.feh.fina
Width: 1098
VWidth: 1304
GlyphClass: 1
UnlinkRmOvrlpSave: 1
Flags: HMW
LayerCount: 2
Fore
SplineSet
75 193 m 0
 75 232 83 277 99 329 c 0
 101 335 110 337 116 335 c 2
 153 320 l 2
 158 318 163 311 159 301 c 0
 149 272 145 247 145 225 c 0
 145 115 253 80 388 80 c 0
 501 80 622 102 723 129 c 1
 682 175 661 228 661 278 c 0
 661 376 752 492 827 492 c 0
 830 492 833 491 836 491 c 0
 914 480 969 388 969 309 c 0
 969 240 943 179 900 130 c 1
 954 112 1020 100 1098 100 c 1
 1098 -0 l 1
 977 0 884 23 814 60 c 1
 810 60 l 1
 725 33 535 -21 370 -21 c 0
 211 -21 75 28 75 193 c 0
917 280 m 1
 905 322 856 390 821 390 c 0
 795 390 720 315 720 260 c 0
 720 245 751 206 813 170 c 1
 870 208 908 252 917 280 c 1
EndSplineSet
Colour: ffda6b
EndChar

StartChar: _.feh.medi
Encoding: 65566 -1 30
GlifName: _.feh.medi
Width: 531
VWidth: 1304
GlyphClass: 1
UnlinkRmOvrlpSave: 1
Flags: HMW
LayerCount: 2
Fore
SplineSet
-50 50 m 0
 -49 76 -26 100 0 100 c 2
 28 100 l 2
 75 100 118 109 159 125 c 1
 115 171 94 226 94 278 c 0
 94 376 184 492 260 492 c 0
 263 492 266 491 269 491 c 0
 345 480 402 388 402 309 c 0
 402 240 375 179 333 130 c 1
 386 112 452 100 531 100 c 1
 531 -0 l 1
 412 0 315 23 245 60 c 1
 180 22 100 0 21 -0 c 2
 0 -0 l 2
 -26 0 -50 24 -50 50 c 0
350 280 m 1
 337 322 288 390 252 390 c 0
 228 390 152 315 152 260 c 0
 152 245 182 206 245 170 c 1
 302 208 340 252 350 280 c 1
EndSplineSet
Colour: ffda6b
EndChar

StartChar: _.feh.init
Encoding: 65567 -1 31
GlifName: _.feh.init
Width: 437
VWidth: 1304
GlyphClass: 1
UnlinkRmOvrlpSave: 1
Flags: HMW
LayerCount: 2
Fore
SplineSet
-50 50 m 0
 -49 75 -26 98 -3 100 c 1
 92 100 l 2
 182 100 242 117 280 144 c 1
 281 169 282 192 282 214 c 1
 250 202 216 200 172 200 c 0
 70 200 24 269 24 333 c 0
 24 339 24 343 25 349 c 2
 25 351 l 1
 41 486 113 589 189 589 c 0
 300 589 362 401 362 240 c 0
 362 231 361 222 361 213 c 0
 360 76 278 0 92 -0 c 2
 -3 -0 l 1
 -28 2 -50 25 -50 50 c 0
87 364 m 0
 87 308 135 300 172 300 c 0
 208 300 242 301 274 312 c 1
 258 420 216 489 174 490 c 0
 130 490 98 423 88 379 c 1
 88 378 l 2
 87 373 87 368 87 364 c 0
EndSplineSet
Colour: ffda6b
EndChar

StartChar: _.qaf.isol
Encoding: 65568 -1 32
GlifName: _.qaf.isol
Width: 781
VWidth: 1304
GlyphClass: 1
UnlinkRmOvrlpSave: 1
Flags: HMW
LayerCount: 2
Fore
SplineSet
75 -37 m 0
 75 21 88 90 119 170 c 0
 123 180 130 185 141 181 c 2
 173 168 l 1
 183 163 186 155 181 144 c 0
 158 83 147 31 147 -12 c 0
 147 -144 242 -197 349 -197 c 0
 454 -197 571 -145 623 -65 c 1
 625 -38 626 -12 626 13 c 1
 594 1 560 0 516 0 c 0
 414 0 368 68 368 133 c 0
 368 139 368 144 369 150 c 0
 381 290 454 400 533 400 c 0
 644 400 706 210 706 49 c 0
 706 39 706 28 705 18 c 0
 707 -182 519 -300 347 -300 c 0
 205 -300 75 -219 75 -37 c 0
517 299 m 0
 470 299 429 219 429 164 c 0
 429 109 479 100 516 100 c 0
 552 100 587 102 619 113 c 1
 603 226 561 299 518 299 c 0
 517 299 l 0
EndSplineSet
Colour: ffda6b
EndChar

StartChar: _.qaf.fina
Encoding: 65569 -1 33
GlifName: _.qaf.fina
Width: 797
VWidth: 1304
GlyphClass: 1
UnlinkRmOvrlpSave: 1
Flags: HMW
LayerCount: 2
Fore
SplineSet
75 -37 m 0
 75 21 88 90 119 170 c 0
 123 180 130 185 141 181 c 2
 173 168 l 1
 183 163 186 155 181 144 c 0
 158 83 147 31 147 -12 c 0
 147 -144 242 -197 349 -197 c 0
 454 -197 571 -145 623 -65 c 1
 624 -43 625 -21 626 0 c 1
 516 0 l 1
 414 1 368 68 368 133 c 0
 368 139 368 144 369 150 c 0
 381 290 454 400 533 400 c 0
 633 400 692 248 704 100 c 1
 797 100 l 1
 797 0 l 1
 704 0 l 1
 696 -189 513 -300 347 -300 c 0
 205 -300 75 -219 75 -37 c 0
517 299 m 0
 470 299 429 219 429 164 c 0
 429 109 479 100 516 100 c 2
 621 100 l 1
 606 221 562 299 518 299 c 0
 517 299 l 0
EndSplineSet
Colour: ffda6b
EndChar

StartChar: _.kaf.isol.fa
Encoding: 65570 -1 34
GlifName: _.kaf.isol.fa
Width: 1000
VWidth: 1304
GlyphClass: 1
UnlinkRmOvrlpSave: 1
Flags: HMW
LayerCount: 2
Fore
SplineSet
388 80 m 0
 518 80 613 112 687 144 c 1
 687 145 l 1
 697 156 702 172 702 190 c 0
 702 259 627 368 479 459 c 0
 468 467 461 480 461 491 c 0
 461 494 462 497 463 500 c 2
 481 556 l 2
 491 584 490 595 539 617 c 1
 908 745 l 2
 910 746 911 746 913 746 c 0
 921 746 925 737 925 724 c 0
 925 695 906 644 882 636 c 2
 557 522 l 1
 716 399 771 301 773 219 c 0
 773 191 765 130 744 104 c 0
 739 95 735 87 730 81 c 0
 683 23 507 -21 369 -21 c 0
 211 -21 75 27 75 191 c 0
 75 230 82 276 99 329 c 0
 100 335 109 337 115 335 c 2
 154 320 l 2
 159 318 164 311 160 301 c 0
 150 272 145 246 145 224 c 0
 145 115 253 80 388 80 c 0
EndSplineSet
Colour: ffda6b
EndChar

StartChar: _.kaf.isol.ar
Encoding: 65571 -1 35
GlifName: _.kaf.isol.ar
Width: 863
VWidth: 1304
GlyphClass: 1
UnlinkRmOvrlpSave: 1
Flags: HMW
LayerCount: 2
Fore
SplineSet
75 102 m 0
 75 114 80 122 92 122 c 0
 96 122 101 121 107 119 c 0
 150 105 227 80 296 80 c 0
 479 80 621 115 715 159 c 1
 699 700 l 2
 699 707 699 713 699 718 c 0
 699 752 706 762 775 800 c 0
 782 800 788 798 788 789 c 2
 788 177 l 1
 786 145 775 104 742 82 c 0
 661 27 526 -20 306 -20 c 0
 195 -20 142 0 108 21 c 0
 99 26 75 74 75 102 c 0
EndSplineSet
Colour: ffda6b
EndChar

StartChar: _.kaf.fina.fa
Encoding: 65572 -1 36
GlifName: _.kaf.fina.fa
Width: 1031
VWidth: 1304
GlyphClass: 1
UnlinkRmOvrlpSave: 1
Flags: HMW
LayerCount: 2
Fore
SplineSet
388 80 m 0
 518 80 613 112 687 144 c 1
 687 145 l 1
 697 156 702 172 702 190 c 0
 702 259 627 368 479 459 c 0
 468 467 461 480 461 491 c 0
 461 494 462 497 463 500 c 2
 481 556 l 2
 491 584 490 595 539 617 c 1
 908 745 l 2
 910 746 911 746 913 746 c 0
 921 746 925 737 925 724 c 0
 925 695 906 644 882 636 c 2
 557 522 l 1
 604 486 641 453 672 421 c 0
 691 399 713 373 727 349 c 0
 811 226 843 100 1031 100 c 1
 1031 0 l 1
 891 0 814 61 759 134 c 1
 755 122 750 111 744 104 c 0
 739 95 735 87 730 81 c 0
 683 23 507 -21 369 -21 c 0
 211 -21 75 27 75 191 c 0
 75 230 82 276 99 329 c 0
 100 335 109 337 115 335 c 2
 154 320 l 2
 159 318 164 311 160 301 c 0
 150 272 145 246 145 224 c 0
 145 115 253 80 388 80 c 0
EndSplineSet
Colour: ffda6b
EndChar

StartChar: _.kaf.fina.ar
Encoding: 65573 -1 37
GlifName: _.kaf.fina.ar
Width: 996
VWidth: 1304
GlyphClass: 1
UnlinkRmOvrlpSave: 1
Flags: HMW
LayerCount: 2
Fore
SplineSet
75 102 m 0
 75 114 80 122 92 122 c 0
 96 122 101 121 107 119 c 0
 150 105 227 80 296 80 c 0
 479 80 621 115 715 159 c 1
 699 700 l 2
 699 707 699 713 699 718 c 0
 699 752 706 762 775 800 c 0
 782 800 788 798 788 789 c 2
 788 231 l 1
 821 158 866 100 996 100 c 1
 996 0 l 1
 868 0 812 42 768 111 c 1
 762 100 753 89 742 82 c 0
 661 27 526 -20 306 -20 c 0
 195 -20 142 0 108 21 c 0
 99 26 75 74 75 102 c 0
EndSplineSet
Colour: ffda6b
EndChar

StartChar: _.kaf.medi
Encoding: 65574 -1 38
GlifName: _.kaf.medi
Width: 564
VWidth: 1304
GlyphClass: 1
UnlinkRmOvrlpSave: 1
Flags: HMW
LayerCount: 2
Fore
SplineSet
-50 50 m 0
 -50 76 -26 100 -1 100 c 2
 29 100 l 2
 120 100 180 117 218 145 c 1
 228 157 234 172 234 190 c 0
 234 259 160 368 12 459 c 0
 1 467 -6 480 -6 491 c 0
 -6 494 -5 497 -4 500 c 2
 14 556 l 2
 24 584 23 595 72 617 c 1
 441 745 l 2
 443 746 444 746 446 746 c 0
 454 746 458 737 458 724 c 0
 458 695 439 644 415 636 c 2
 90 522 l 1
 137 486 174 453 205 421 c 0
 224 399 245 374 260 351 c 0
 344 227 374 100 564 100 c 1
 564 -0 l 1
 421 0 344 63 290 138 c 1
 265 49 187 0 29 -0 c 2
 -1 -0 l 2
 -26 0 -50 24 -50 50 c 0
EndSplineSet
Colour: ffda6b
EndChar

StartChar: _.kaf.init
Encoding: 65575 -1 39
GlifName: _.kaf.init
Width: 533
VWidth: 1304
GlyphClass: 1
UnlinkRmOvrlpSave: 1
Flags: HMW
LayerCount: 2
Fore
SplineSet
-50 50 m 0
 -50 76 -26 100 -1 100 c 2
 29 100 l 2
 120 100 180 117 218 145 c 1
 228 157 234 172 234 190 c 0
 234 259 160 368 12 459 c 0
 1 467 -6 480 -6 491 c 0
 -6 494 -5 497 -4 500 c 2
 14 556 l 2
 24 584 23 595 72 617 c 1
 441 745 l 2
 443 746 444 746 446 746 c 0
 454 746 458 737 458 724 c 0
 458 695 439 644 415 636 c 2
 90 522 l 1
 249 399 304 301 306 219 c 0
 306 191 298 128 276 103 c 1
 242 35 164 0 29 -0 c 2
 -1 -0 l 2
 -26 0 -50 24 -50 50 c 0
EndSplineSet
Colour: ffda6b
EndChar

StartChar: _.kaf_hamze.isol.ar
Encoding: 65576 -1 40
GlifName: _.kaf_hamze.isol.ar
Width: 321
VWidth: 1304
GlyphClass: 1
UnlinkRmOvrlpSave: 1
Flags: HMW
LayerCount: 2
Fore
SplineSet
75 -20 m 1
 75 22 l 1
 80 22 86 21 91 21 c 0
 149 21 203 42 203 63 c 0
 203 73 189 84 157 92 c 0
 116 103 97 137 97 172 c 0
 97 215 127 259 184 259 c 0
 198 259 214 256 231 250 c 1
 231 205 l 1
 220 211 209 214 198 214 c 0
 166 214 138 193 138 171 c 0
 138 156 152 140 185 130 c 0
 224 118 246 93 246 66 c 0
 246 25 195 -20 81 -20 c 0
 79 -20 77 -20 75 -20 c 1
EndSplineSet
Colour: ffda6b
EndChar

StartChar: _.ghaf.isol
Encoding: 65577 -1 41
GlifName: _.ghaf.isol
Width: 1051
VWidth: 0
GlyphClass: 1
UnlinkRmOvrlpSave: 1
Flags: HMW
LayerCount: 2
Fore
SplineSet
75 181 m 0
 75 222 85 271 107 329 c 0
 109 335 118 337 124 335 c 2
 161 320 l 2
 167 318 172 311 168 301 c 0
 154 268 148 239 148 215 c 0
 148 115 253 84 383 84 c 0
 524 84 697 121 800 152 c 1
 800 155 800 158 800 161 c 0
 800 271 685 384 551 464 c 0
 538 472 533 486 533 497 c 0
 533 500 533 503 534 505 c 2
 552 561 l 2
 562 589 561 599 611 621 c 2
 961 780 l 2
 963 781 965 782 967 782 c 0
 974 782 976 774 976 763 c 0
 976 734 957 682 934 672 c 2
 627 533 l 1
 810 405 877 290 877 199 c 0
 877 138 851 73 810 59 c 0
 713 26 530 -19 372 -19 c 0
 211 -19 75 27 75 181 c 0
588 708 m 0
 588 725 594 749 605 753 c 2
 854 859 l 2
 855 859 856 860 857 860 c 0
 863 860 866 850 866 838 c 0
 866 822 860 803 851 799 c 2
 599 689 l 2
 598 689 597 689 596 689 c 0
 590 689 588 697 588 708 c 0
EndSplineSet
Colour: ffda6b
EndChar

StartChar: _.ghaf.fina
Encoding: 65578 -1 42
GlifName: _.ghaf.fina
Width: 1031
VWidth: 0
GlyphClass: 1
Flags: HMW
LayerCount: 2
Fore
SplineSet
388 80 m 0
 518 80 613 112 687 144 c 1
 687 145 l 1
 697 156 702 172 702 190 c 0
 702 259 627 368 479 459 c 0
 468 467 461 480 461 491 c 0
 461 494 462 497 463 500 c 2
 481 556 l 2
 491 584 490 595 539 617 c 1
 908 745 l 2
 910 746 911 746 913 746 c 0
 921 746 925 737 925 724 c 0
 925 695 906 644 882 636 c 2
 557 522 l 1
 604 486 641 453 672 421 c 0
 691 399 713 373 727 349 c 0
 811 226 843 100 1031 100 c 1
 1031 0 l 1
 891 0 814 61 759 134 c 1
 755 122 750 111 744 104 c 0
 739 95 735 87 730 81 c 0
 683 23 507 -21 369 -21 c 0
 211 -21 75 27 75 191 c 0
 75 230 82 276 99 329 c 0
 100 335 109 337 115 335 c 2
 154 320 l 2
 159 318 164 311 160 301 c 0
 150 272 145 246 145 224 c 0
 145 115 253 80 388 80 c 0
533 685 m 0
 533 702 543 730 555 734 c 2
 810 822 l 2
 811 822 811 823 812 823 c 0
 818 823 821 815 821 804 c 0
 821 788 815 766 804 762 c 2
 544 671 l 2
 543 671 542 670 541 670 c 0
 536 670 533 676 533 685 c 0
EndSplineSet
Colour: ffda6b
EndChar

StartChar: _.lam.isol
Encoding: 65580 -1 44
GlifName: _.lam.isol
Width: 736
VWidth: 1304
GlyphClass: 1
UnlinkRmOvrlpSave: 1
Flags: HMW
LayerCount: 2
Fore
SplineSet
75 -62 m 0
 75 2 91 80 125 170 c 0
 129 180 137 185 149 181 c 1
 179 168 l 2
 189 163 192 155 187 144 c 0
 160 76 148 20 148 -26 c 0
 148 -151 235 -200 331 -200 c 0
 460 -199 582 -100 589 -47 c 1
 573 667 l 2
 573 680 573 690 573 699 c 0
 573 734 577 743 609 770 c 2
 632 790 l 2
 639 796 645 800 650 800 c 0
 657 800 661 793 661 779 c 2
 661 0 l 2
 661 -175 476 -301 323 -301 c 0
 171 -301 75 -221 75 -62 c 0
EndSplineSet
Colour: ffda6b
EndChar

StartChar: _.lam.fina
Encoding: 65581 -1 45
GlifName: _.lam.fina
Width: 813
VWidth: 1304
GlyphClass: 1
UnlinkRmOvrlpSave: 1
Flags: HMW
LayerCount: 2
Fore
SplineSet
75 -62 m 0
 75 2 91 80 125 170 c 0
 129 180 137 185 149 181 c 1
 179 168 l 2
 189 163 192 155 187 144 c 0
 160 76 148 20 148 -26 c 0
 148 -151 235 -200 331 -200 c 0
 460 -199 582 -100 589 -47 c 1
 573 667 l 2
 573 680 573 690 573 699 c 0
 573 734 577 743 609 770 c 2
 632 790 l 2
 639 796 645 800 650 800 c 0
 657 800 661 793 661 779 c 2
 661 166 l 2
 661 119 722 100 813 100 c 1
 813 0 l 1
 743 0 695 13 661 31 c 1
 661 0 l 2
 661 -175 476 -301 323 -301 c 0
 171 -301 75 -221 75 -62 c 0
EndSplineSet
Colour: ffda6b
EndChar

StartChar: _.lam.medi
Encoding: 65582 -1 46
GlifName: _.lam.medi
Width: 413
VWidth: 1304
GlyphClass: 1
UnlinkRmOvrlpSave: 1
Flags: HMW
LayerCount: 2
Fore
SplineSet
-50 50 m 0
 -50 76 -26 100 -1 100 c 1
 -1 84 l 1
 -1 100 l 1
 58 100 180 107 184 162 c 1
 173 667 l 2
 173 680 172 690 172 699 c 0
 172 734 177 743 209 770 c 2
 232 790 l 2
 239 796 245 800 250 800 c 0
 257 800 260 793 260 779 c 2
 260 164 l 1
 262 120 323 100 413 100 c 1
 413 -0 l 1
 305 0 246 30 216 69 c 1
 180 28 110 0 -1 -0 c 1
 -26 1 -50 24 -50 50 c 0
EndSplineSet
Colour: ffda6b
EndChar

StartChar: _.lam.init
Encoding: 65583 -1 47
GlifName: _.lam.init
Width: 343
VWidth: 1304
GlyphClass: 1
UnlinkRmOvrlpSave: 1
Flags: HMW
LayerCount: 2
Fore
SplineSet
-50 50 m 0
 -50 75 -27 99 -2 100 c 0
 89 100 150 117 188 145 c 1
 199 155 l 1
 164 665 l 2
 163 683 162 696 162 707 c 0
 162 735 169 744 196 770 c 2
 218 791 l 2
 225 797 231 801 236 801 c 0
 243 801 247 794 248 780 c 2
 268 220 l 1
 269 53 153 0 0 -0 c 1
 -25 1 -50 24 -50 50 c 0
EndSplineSet
Colour: ffda6b
EndChar

StartChar: _.mim.isol
Encoding: 65584 -1 48
GlifName: _.mim.isol
Width: 623
VWidth: 1304
GlyphClass: 1
UnlinkRmOvrlpSave: 1
Flags: HMW
LayerCount: 2
Fore
SplineSet
548 187 m 0
 548 128 505 77 444 77 c 0
 439 77 433 78 428 79 c 0
 400 84 365 87 328 87 c 0
 264 87 194 78 144 53 c 1
 177 -320 l 2
 179 -356 149 -370 119 -390 c 0
 112 -394 107 -397 103 -397 c 0
 95 -397 93 -389 92 -378 c 2
 75 44 l 1
 75 128 153 168 242 183 c 1
 239 183 l 1
 282 315 l 1
 289 331 308 383 346 389 c 0
 354 390 361 391 368 391 c 0
 468 391 548 276 548 187 c 0
284 188 m 1
 301 190 319 191 337 191 c 0
 384 191 430 185 477 177 c 1
 465 224 389 281 349 281 c 0
 347 281 346 280 344 280 c 0
 333 279 299 219 284 188 c 1
EndSplineSet
Colour: ffda6b
EndChar

StartChar: _.mim.fina
Encoding: 65585 -1 49
GlifName: _.mim.fina
Width: 714
VWidth: 1304
GlyphClass: 1
UnlinkRmOvrlpSave: 1
Flags: HMW
LayerCount: 2
Fore
SplineSet
75 32 m 1
 77 104 l 1
 77 239 255 293 400 294 c 1
 429 352 l 2
 435 366 444 375 452 375 c 0
 458 375 463 370 467 358 c 0
 524 205 553 100 714 100 c 1
 714 0 l 1
 675 0 643 4 615 11 c 0
 611 11 609 12 605 13 c 0
 596 15 587 17 578 17 c 0
 492 17 433 -93 367 -93 c 0
 357 -93 348 -90 338 -85 c 0
 274 -46 262 85 255 180 c 1
 212 168 172 149 140 124 c 1
 175 -320 l 2
 177 -356 146 -370 118 -390 c 0
 111 -394 106 -397 102 -397 c 0
 94 -397 91 -389 90 -378 c 2
 75 32 l 1
344 198 m 1
 348 119 358 26 402 -1 c 0
 403 -2 404 -3 406 -3 c 0
 424 -3 463 43 514 68 c 1
 483 100 462 141 440 194 c 1
 427 194 l 1
 411 197 393 199 374 199 c 0
 364 199 354 199 344 198 c 1
EndSplineSet
Colour: ffda6b
EndChar

StartChar: _.mim.medi
Encoding: 65586 -1 50
GlifName: _.mim.medi
Width: 666
VWidth: 1304
GlyphClass: 1
UnlinkRmOvrlpSave: 1
Flags: HMW
LayerCount: 2
Fore
SplineSet
-50 50 m 0
 -49 76 -25 100 0 100 c 0
 94 100 155 121 189 168 c 0
 216 200 233 238 253 269 c 0
 276 306 299 321 322 321 c 0
 363 321 407 275 456 225 c 0
 514 166 565 100 666 100 c 1
 666 -0 l 1
 591 0 540 24 498 56 c 1
 451 -13 410 -41 365 -41 c 0
 315 -41 259 -6 186 43 c 1
 133 7 63 0 0 -0 c 0
 -25 0 -50 24 -50 50 c 0
452 97 m 1
 416 130 346 215 307 215 c 0
 296 215 285 208 276 194 c 2
 236 129 l 1
 296 87 340 58 380 58 c 0
 405 58 428 70 452 97 c 1
EndSplineSet
Colour: ffda6b
EndChar

StartChar: _.mim.init
Encoding: 65587 -1 51
GlifName: _.mim.init
Width: 597
VWidth: 1304
GlyphClass: 1
UnlinkRmOvrlpSave: 1
Flags: HMW
LayerCount: 2
Fore
SplineSet
-50 50 m 0
 -50 75 -26 100 -1 100 c 0
 106 100 156 116 206 196 c 1
 270 306 l 2
 303 365 339 383 380 383 c 0
 462 383 522 249 522 140 c 0
 522 65 494 2 425 2 c 0
 419 2 413 3 407 4 c 1
 216 70 l 1
 163 11 74 0 -1 -0 c 0
 -26 1 -50 24 -50 50 c 0
259 162 m 1
 435 100 l 2
 436 100 437 99 438 99 c 0
 443 99 446 105 446 115 c 0
 446 159 398 279 347 279 c 0
 332 279 316 268 302 241 c 2
 259 162 l 1
EndSplineSet
Colour: ffda6b
EndChar

StartChar: _.nun.isol
Encoding: 65588 -1 52
GlifName: _.nun.isol
Width: 798
VWidth: 1305
GlyphClass: 1
UnlinkRmOvrlpSave: 1
Flags: HMW
LayerCount: 2
Fore
SplineSet
75 -48 m 0
 75 19 93 101 135 199 c 0
 140 209 147 215 159 210 c 2
 190 198 l 2
 200 194 202 184 197 173 c 0
 165 99 151 38 151 -12 c 0
 151 -140 242 -193 349 -193 c 0
 460 -193 588 -137 648 -51 c 1
 648 -49 648 -46 648 -43 c 0
 648 12 601 161 569 228 c 0
 565 243 571 250 577 255 c 2
 627 296 l 2
 639 307 647 296 649 290 c 0
 680 221 723 95 723 8 c 0
 723 -2 722 -12 721 -21 c 0
 695 -193 507 -301 340 -301 c 0
 200 -301 75 -225 75 -48 c 0
EndSplineSet
Colour: ffda6b
EndChar

StartChar: _.nun.fina
Encoding: 65589 -1 53
GlifName: _.nun.fina
Width: 873
VWidth: 1413
GlyphClass: 1
UnlinkRmOvrlpSave: 1
Flags: HMW
LayerCount: 2
Fore
SplineSet
75 -48 m 0
 75 19 93 101 135 199 c 0
 140 209 147 215 159 210 c 2
 190 198 l 2
 200 194 202 184 197 173 c 0
 165 99 151 38 151 -12 c 0
 151 -140 242 -193 349 -193 c 0
 460 -193 588 -137 648 -51 c 1
 648 -49 648 -46 648 -43 c 0
 648 12 601 161 569 228 c 0
 565 243 571 250 577 255 c 2
 627 296 l 2
 639 307 647 296 649 290 c 0
 655 276 661 262 667 245 c 0
 689 196 718 100 873 100 c 1
 873 0 l 1
 816 0 764 9 723 37 c 1
 724 28 723 19 723 11 c 0
 723 -1 722 -11 721 -21 c 0
 695 -193 507 -301 340 -301 c 0
 200 -301 75 -225 75 -48 c 0
EndSplineSet
Colour: ffda6b
EndChar

StartChar: _.vav.isol
Encoding: 65590 -1 54
GlifName: _.vav.isol
Width: 528
VWidth: 1304
GlyphClass: 1
UnlinkRmOvrlpSave: 1
Flags: HMW
LayerCount: 2
Fore
SplineSet
263 0 m 0
 175 0 109 43 109 133 c 0
 109 143 110 154 112 166 c 0
 123 261 172 380 277 380 c 0
 409 380 449 201 451 111 c 1
 452 94 453 79 453 64 c 0
 453 -31 423 -87 379 -148 c 0
 320 -229 235 -290 171 -301 c 1
 147 -301 75 -265 75 -241 c 0
 75 -238 77 -235 80 -232 c 1
 297 -153 355 -43 372 0 c 0
 373 5 373 14 373 28 c 1
 335 12 299 0 263 0 c 0
167 153 m 0
 167 118 223 99 266 99 c 0
 301 99 337 108 368 117 c 1
 357 195 329 280 265 280 c 0
 210 279 184 216 170 170 c 1
 167 166 167 158 167 153 c 0
EndSplineSet
Colour: ffda6b
EndChar

StartChar: _.vav.fina
Encoding: 65591 -1 55
GlifName: _.vav.fina
Width: 533
VWidth: 1304
GlyphClass: 1
UnlinkRmOvrlpSave: 1
Flags: HMW
LayerCount: 2
Fore
SplineSet
448 0 m 1
 422 -136 278 -282 171 -301 c 1
 147 -301 75 -265 75 -241 c 0
 75 -238 77 -235 80 -232 c 1
 295 -153 355 -43 372 0 c 1
 256 0 l 1
 171 3 109 44 109 132 c 0
 109 143 110 154 112 166 c 0
 123 261 172 380 277 380 c 0
 409 380 449 201 451 111 c 0
 451 107 452 104 452 100 c 1
 533 100 l 1
 533 0 l 1
 448 0 l 1
167 153 m 0
 167 120 217 100 257 100 c 2
 369 100 l 1
 360 181 334 280 265 280 c 0
 210 279 184 216 170 170 c 1
 167 166 167 159 167 153 c 0
EndSplineSet
Colour: ffda6b
EndChar

StartChar: _.dal.isol
Encoding: 65592 -1 56
GlifName: _.dal.isol
Width: 529
VWidth: 1304
GlyphClass: 1
UnlinkRmOvrlpSave: 1
Flags: HMW
LayerCount: 2
Fore
SplineSet
75 128 m 0
 75 138 76 148 77 159 c 0
 78 169 89 174 100 174 c 0
 111 174 121 169 121 159 c 0
 120 115 152 101 207 100 c 0
 262 100 330 123 383 151 c 1
 373 257 282 353 202 415 c 0
 195 421 193 426 193 432 c 0
 193 439 197 446 200 452 c 2
 226 495 l 2
 235 510 247 506 256 500 c 0
 363 416 446 315 453 181 c 0
 453 178 454 175 454 172 c 0
 454 126 432 102 411 61 c 1
 377 40 286 0 206 -0 c 0
 131 0 75 30 75 128 c 0
EndSplineSet
Colour: ffda6b
EndChar

StartChar: _.dal.fina
Encoding: 65593 -1 57
GlifName: _.dal.fina
Width: 624
VWidth: 1304
GlyphClass: 1
UnlinkRmOvrlpSave: 1
Flags: HMW
LayerCount: 2
Fore
SplineSet
75 128 m 0
 75 138 76 148 77 159 c 0
 78 169 89 174 100 174 c 0
 111 174 121 169 121 159 c 0
 120 115 152 101 207 100 c 0
 264 100 334 126 388 154 c 1
 329 420 l 2
 328 427 331 436 336 441 c 2
 392 493 l 2
 394 497 406 493 407 487 c 2
 456 246 l 2
 470 176 480 100 624 100 c 1
 624 -0 l 1
 514 0 458 26 425 70 c 1
 420 68 415 63 411 61 c 0
 378 40 286 0 206 -0 c 0
 131 0 75 30 75 128 c 0
EndSplineSet
Colour: ffda6b
EndChar

StartChar: _.ree.isol
Encoding: 65594 -1 58
GlifName: _.ree.isol
Width: 530
VWidth: 1304
GlyphClass: 1
UnlinkRmOvrlpSave: 1
Flags: HMW
LayerCount: 2
Fore
SplineSet
75 -243 m 0
 75 -239 77 -235 81 -232 c 1
 182 -195 247 -153 293 -111 c 0
 335 -72 378 13 378 42 c 0
 378 44 379 47 378 48 c 0
 373 101 328 199 298 263 c 0
 294 278 300 285 306 290 c 2
 355 333 l 2
 367 343 376 333 378 326 c 0
 411 251 455 173 455 69 c 0
 455 -9 429 -82 380 -148 c 0
 321 -229 219 -290 154 -301 c 1
 132 -301 75 -267 75 -243 c 0
EndSplineSet
Colour: ffda6b
EndChar

StartChar: _.ree.fina
Encoding: 65595 -1 59
GlifName: _.ree.fina
Width: 610
VWidth: 1304
GlyphClass: 1
UnlinkRmOvrlpSave: 1
Flags: HMW
LayerCount: 2
Fore
SplineSet
75 -243 m 0
 75 -239 77 -235 81 -232 c 1
 182 -195 249 -152 293 -111 c 0
 337 -70 379 15 379 43 c 2
 379 48 l 1
 375 87 335 161 315 204 c 0
 310 219 317 226 322 231 c 2
 371 273 l 2
 383 284 392 273 394 267 c 2
 403 245 l 2
 405 241 408 237 410 232 c 2
 422 205 l 1
 445 157 489 100 610 100 c 1
 610 0 l 1
 550 0 496 8 454 39 c 1
 448 -27 423 -90 380 -148 c 0
 321 -229 219 -290 154 -301 c 1
 132 -301 75 -267 75 -243 c 0
EndSplineSet
Colour: ffda6b
EndChar

StartChar: _.he8.isol
Encoding: 65596 -1 60
GlifName: _.he8.isol
Width: 489
VWidth: 1304
GlyphClass: 1
UnlinkRmOvrlpSave: 1
Flags: HMW
LayerCount: 2
Fore
SplineSet
75 127 m 0
 75 199 118 294 194 389 c 1
 181 400 169 411 156 422 c 0
 151 426 149 435 153 441 c 2
 189 503 l 2
 191 507 198 514 205 508 c 2
 221 495 l 2
 412 333 414 285 414 221 c 0
 414 120 375 0 231 0 c 0
 123 0 75 51 75 127 c 0
139 152 m 0
 139 119 163 100 226 100 c 0
 301 100 345 142 355 172 c 0
 356 175 357 179 357 183 c 0
 357 226 294 299 247 343 c 1
 188 269 139 198 139 152 c 0
EndSplineSet
Colour: ffda6b
EndChar

StartChar: _.he8.fina
Encoding: 65597 -1 61
GlifName: _.he8.fina
Width: 557
VWidth: 1304
GlyphClass: 1
UnlinkRmOvrlpSave: 1
Flags: HMW
LayerCount: 2
Fore
SplineSet
176 71 m 0
 99 71 75 125 75 183 c 0
 75 265 148 359 277 421 c 1
 264 481 l 2
 263 488 267 498 273 503 c 2
 327 544 l 2
 331 546 342 543 342 538 c 2
 396 235 l 2
 412 146 403 100 557 100 c 1
 557 0 l 1
 413 0 361 50 339 104 c 1
 291 86 228 71 176 71 c 0
142 203 m 0
 142 180 159 167 190 167 c 0
 219 167 261 178 317 203 c 1
 289 349 l 1
 235 322 142 257 142 203 c 0
EndSplineSet
Colour: ffda6b
EndChar

StartChar: _.he8.medi
Encoding: 65598 -1 62
GlifName: _.he8.medi
Width: 499
VWidth: 1304
GlyphClass: 1
UnlinkRmOvrlpSave: 1
Flags: HMW
LayerCount: 2
Fore
SplineSet
382 232 m 0
 382 170 357 137 314 100 c 1
 499 100 l 1
 499 -0 l 1
 423 -0 l 1
 433 -24 437 -50 437 -75 c 0
 437 -90 436 -106 433 -121 c 0
 422 -195 372 -227 315 -227 c 0
 218 -227 96 -134 90 5 c 1
 87 5 l 1
 71 3 55 0 41 -0 c 2
 -2 -0 l 1
 -26 1 -50 23 -50 48 c 0
 -50 74 -28 99 -2 100 c 0
 26 100 54 100 82 101 c 1
 87 234 136 355 184 434 c 0
 191 446 199 458 206 468 c 2
 223 493 l 2
 226 498 235 502 243 502 c 0
 249 502 255 499 260 493 c 2
 268 482 l 1
 303 435 382 338 382 232 c 0
129 12 m 1
 144 -67 260 -130 327 -130 c 0
 353 -130 374 -121 374 -97 c 0
 374 -80 357 -25 271 2 c 0
 248 11 206 17 167 23 c 1
 155 18 141 14 129 12 c 1
143 107 m 1
 277 128 322 187 322 202 c 0
 322 219 288 290 242 359 c 1
 198 290 159 205 143 107 c 1
EndSplineSet
Colour: ffda6b
EndChar

StartChar: _.he8.init
Encoding: 65599 -1 63
GlifName: _.he8.init
Width: 698
VWidth: 1304
GlyphClass: 1
UnlinkRmOvrlpSave: 1
Flags: HMW
LayerCount: 2
Fore
SplineSet
492 29 m 0
 413 29 337 50 275 72 c 1
 221 29 143 0 30 -0 c 2
 -1 -0 l 1
 -25 1 -50 24 -50 49 c 0
 -50 75 -27 100 -1 100 c 2
 31 100 l 2
 80 100 125 109 163 124 c 1
 154 128 145 133 138 138 c 0
 100 162 85 202 85 243 c 0
 85 266 90 289 98 309 c 0
 120 364 146 406 174 434 c 1
 194 533 l 1
 492 384 616 301 623 196 c 0
 623 192 624 187 623 183 c 0
 623 162 619 141 610 118 c 0
 589 58 552 29 492 29 c 0
152 277 m 0
 152 227 221 200 266 183 c 1
 296 206 314 230 319 240 c 0
 320 248 321 257 321 267 c 0
 321 305 313 351 292 369 c 1
 280 377 l 1
 276 378 271 378 266 378 c 0
 217 378 152 327 152 277 c 0
346 156 m 1
 403 140 458 130 486 130 c 0
 520 130 542 137 553 154 c 1
 557 197 498 248 385 317 c 1
 385 312 385 308 385 303 c 0
 385 288 384 273 381 258 c 0
 376 227 364 192 346 156 c 1
EndSplineSet
Colour: ffda6b
EndChar

StartChar: _.yeh.fina
Encoding: 65600 -1 64
GlifName: _.yeh.fina
Width: 832
VWidth: 1304
GlyphClass: 1
UnlinkRmOvrlpSave: 1
Flags: HMW
LayerCount: 2
Fore
SplineSet
75 -6 m 0
 75 67 91 157 130 266 c 0
 134 276 141 281 152 277 c 2
 184 263 l 2
 194 259 196 251 192 240 c 0
 161 153 147 82 147 25 c 0
 147 -135 253 -183 368 -183 c 0
 503 -183 647 -118 647 -83 c 0
 647 -58 621 -32 560 -5 c 0
 524 10 481 28 450 40 c 0
 436 49 438 59 438 66 c 1
 443 100 l 1
 447 132 l 1
 447 134 l 1
 449 146 449 164 466 164 c 0
 469 164 472 163 476 162 c 0
 582 132 759 100 832 100 c 1
 832 -0 l 1
 779 0 725 16 668 34 c 1
 697 5 710 -26 710 -61 c 0
 710 -180 522 -288 350 -288 c 0
 207 -288 75 -212 75 -6 c 0
EndSplineSet
Colour: ffda6b
EndChar

StartChar: _.yeh.isol
Encoding: 65601 -1 65
GlifName: _.yeh.isol
Width: 831
VWidth: 1304
GlyphClass: 1
UnlinkRmOvrlpSave: 1
Flags: HMW
LayerCount: 2
Fore
SplineSet
692 -32 m 0
 692 -157 500 -266 327 -266 c 0
 194 -266 75 -199 75 -20 c 0
 75 59 97 159 152 285 c 0
 156 295 164 301 175 296 c 2
 207 284 l 2
 217 280 219 271 214 260 c 0
 168 153 149 71 149 9 c 0
 149 -123 237 -164 337 -164 c 0
 467 -164 618 -95 629 -65 c 0
 631 -60 632 -55 632 -50 c 0
 632 -15 584 10 542 15 c 0
 512 20 487 24 469 31 c 0
 428 43 410 75 410 116 c 0
 410 131 413 147 417 164 c 0
 440 256 528 362 618 362 c 0
 683 362 744 299 756 255 c 1
 732 213 l 1
 709 241 663 258 619 258 c 0
 550 257 490 201 479 160 c 0
 478 157 477 153 477 150 c 0
 477 137 485 127 495 122 c 1
 582 104 l 2
 647 91 692 43 692 -32 c 0
EndSplineSet
Colour: ffda6b
EndChar

StartChar: _.hamze.isol
Encoding: 65602 -1 66
GlifName: _.hamze.isol
Width: 513
VWidth: 1304
GlyphClass: 2
Flags: HMW
LayerCount: 2
Fore
SplineSet
75 66 m 2
 74 73 74 86 81 88 c 0
 111 103 141 116 171 130 c 1
 126 172 105 224 105 274 c 0
 105 360 167 437 276 437 c 0
 304 437 335 432 368 421 c 0
 382 419 382 411 380 400 c 1
 361 353 l 2
 360 348 362 335 342 340 c 0
 327 343 312 344 298 344 c 0
 236 344 192 315 192 275 c 0
 192 246 214 211 270 177 c 1
 314 198 361 219 405 239 c 0
 414 244 429 239 430 229 c 2
 437 173 l 2
 438 166 437 153 430 151 c 2
 105 0 l 2
 98 -4 83 1 82 8 c 2
 75 66 l 2
EndSplineSet
Colour: ffda6b
EndChar

StartChar: _.keshide.medi
Encoding: 65603 -1 67
GlifName: _.keshide.medi
Width: 235
VWidth: 1304
GlyphClass: 2
Flags: HMW
LayerCount: 2
Fore
SplineSet
-12 100 m 2
 235 100 l 1
 235 0 l 1
 -12 0 l 2
 -24 0 -33 5 -40 15 c 0
 -47 25 -50 37 -50 50 c 0
 -50 63 -47 75 -40 85 c 0
 -33 95 -24 100 -12 100 c 2
EndSplineSet
Colour: ffda6b
EndChar

StartChar: _.dot.1u
Encoding: 65604 -1 68
GlifName: _.dot.1u
Width: 0
VWidth: 1304
GlyphClass: 2
Flags: HMW
LayerCount: 2
Fore
SplineSet
5 56 m 2
 -2 63 -2 75 5 82 c 2
 56 134 l 2
 63 141 75 141 82 134 c 2
 134 82 l 2
 141 75 141 63 134 56 c 2
 82 5 l 2
 75 -2 63 -2 56 5 c 2
 5 56 l 2
EndSplineSet
Colour: ffda6b
EndChar

StartChar: _.dot.2u
Encoding: 65605 -1 69
GlifName: _.dot.2u
Width: 0
VWidth: 1304
GlyphClass: 2
UnlinkRmOvrlpSave: 1
Flags: HMW
LayerCount: 2
Fore
SplineSet
5 58 m 2
 -2 64 -2 75 5 81 c 2
 53 129 l 2
 59 136 70 136 76 129 c 2
 124 81 l 2
 131 75 131 64 124 58 c 2
 76 10 l 2
 70 3 59 3 53 10 c 2
 5 58 l 2
174 58 m 2
 168 64 167 75 174 81 c 2
 222 129 l 2
 228 136 240 136 247 129 c 2
 294 81 l 2
 301 75 301 64 294 58 c 2
 247 10 l 2
 240 3 228 3 222 10 c 2
 174 58 l 2
EndSplineSet
Colour: ffda6b
EndChar

StartChar: _.dot.3u
Encoding: 65606 -1 70
GlifName: _.dot.3u
Width: 0
VWidth: 1304
GlyphClass: 2
UnlinkRmOvrlpSave: 1
Flags: HMW
LayerCount: 2
Fore
SplineSet
6 58 m 2
 -1 64 -1 75 6 81 c 2
 54 129 l 2
 60 136 71 136 77 129 c 2
 125 81 l 2
 132 75 132 64 125 58 c 2
 77 10 l 2
 71 3 60 3 54 10 c 2
 6 58 l 2
95 178 m 2
 89 184 89 194 95 200 c 2
 141 246 l 2
 147 252 157 252 164 246 c 1
 209 200 l 2
 215 194 215 184 209 178 c 2
 164 133 l 1
 157 127 147 127 141 133 c 2
 95 178 l 2
175 58 m 2
 169 64 168 75 175 81 c 2
 223 129 l 2
 229 136 241 136 248 129 c 2
 295 81 l 2
 302 75 302 64 295 58 c 2
 248 10 l 2
 241 3 229 3 223 10 c 2
 175 58 l 2
EndSplineSet
Colour: ffda6b
EndChar

StartChar: _.dot.1d
Encoding: 65607 -1 71
GlifName: _.dot.1d
Width: 0
VWidth: 1304
GlyphClass: 2
Flags: HMW
LayerCount: 2
Fore
SplineSet
5 -58 m 2
 56 -6 l 2
 63 1 75 1 82 -6 c 2
 134 -58 l 2
 141 -65 141 -77 134 -84 c 2
 82 -136 l 2
 75 -143 63 -143 56 -136 c 2
 5 -84 l 2
 -2 -77 -2 -65 5 -58 c 2
EndSplineSet
Colour: ffda6b
EndChar

StartChar: _.dot.2d
Encoding: 65608 -1 72
GlifName: _.dot.2d
Width: 0
VWidth: 1304
GlyphClass: 2
UnlinkRmOvrlpSave: 1
Flags: HMW
LayerCount: 2
Fore
SplineSet
5 -54 m 2
 53 -6 l 2
 59 0 70 0 76 -6 c 2
 124 -54 l 2
 131 -61 131 -73 124 -79 c 2
 76 -127 l 2
 70 -133 59 -133 53 -127 c 2
 5 -79 l 2
 -2 -73 -2 -61 5 -54 c 2
174 -54 m 2
 222 -6 l 2
 228 0 240 0 247 -6 c 2
 294 -54 l 2
 301 -61 301 -73 294 -79 c 2
 247 -127 l 2
 240 -133 228 -133 222 -127 c 2
 174 -79 l 2
 168 -73 167 -61 174 -54 c 2
EndSplineSet
Colour: ffda6b
EndChar

StartChar: _.dot.3d
Encoding: 65609 -1 73
GlifName: _.dot.3d
Width: 0
VWidth: 1304
GlyphClass: 2
UnlinkRmOvrlpSave: 1
Flags: HMW
LayerCount: 2
Fore
SplineSet
5 -54 m 2
 53 -6 l 2
 59 0 70 0 76 -6 c 2
 124 -54 l 2
 131 -61 131 -73 124 -79 c 2
 76 -127 l 2
 70 -133 59 -133 53 -127 c 2
 5 -79 l 2
 -2 -73 -2 -61 5 -54 c 2
92 -170 m 2
 136 -126 l 2
 143 -120 154 -120 160 -126 c 2
 205 -170 l 2
 211 -176 211 -187 205 -193 c 2
 160 -238 l 1
 154 -245 143 -245 136 -238 c 2
 92 -193 l 2
 86 -187 86 -176 92 -170 c 2
174 -54 m 2
 222 -6 l 2
 228 0 240 0 247 -6 c 2
 294 -54 l 2
 301 -61 301 -73 294 -79 c 2
 247 -127 l 2
 240 -133 228 -133 222 -127 c 2
 174 -79 l 2
 168 -73 167 -61 174 -54 c 2
EndSplineSet
Colour: ffda6b
EndChar

StartChar: _.num.0
Encoding: 65611 -1 75
GlifName: _.num.0
Width: 395
VWidth: 1424
GlyphClass: 2
Flags: HMW
LayerCount: 2
Fore
SplineSet
204 167 m 0
 116 167 75 242 75 316 c 0
 75 392 118 468 199 468 c 0
 278 468 320 387 320 310 c 0
 320 237 283 167 204 167 c 0
146 317 m 0
 146 285 163 252 198 252 c 0
 233 252 250 284 250 316 c 0
 250 349 232 382 198 383 c 0
 164 383 146 350 146 317 c 0
EndSplineSet
Colour: ffda6b
EndChar

StartChar: _.num.1
Encoding: 65612 -1 76
GlifName: _.num.1
Width: 325
VWidth: 1331
GlyphClass: 2
Flags: HMW
LayerCount: 2
Fore
SplineSet
78 663 m 0
 71 675 78 686 85 697 c 2
 142 784 l 2
 149 795 161 785 163 780 c 0
 249 499 250 494 250 15 c 0
 250 6 245 0 234 -4 c 2
 197 -19 l 1
 176 -29 170 -14 170 -3 c 0
 170 8 170 20 170 31 c 0
 170 407 129 524 78 663 c 0
EndSplineSet
Colour: ffda6b
EndChar

StartChar: _.num.2
Encoding: 65613 -1 77
GlifName: _.num.2
Width: 610
VWidth: 1331
GlyphClass: 2
Flags: HMW
LayerCount: 2
Fore
SplineSet
78 663 m 0
 71 675 78 686 85 697 c 2
 142 784 l 2
 149 795 161 785 163 780 c 0
 180 725 194 679 205 640 c 0
 230 570 269 519 348 519 c 0
 349 519 351 519 352 519 c 0
 425 519 445 556 445 602 c 0
 445 638 433 680 422 714 c 0
 417 726 421 732 428 736 c 2
 478 769 l 2
 485 774 495 780 499 766 c 0
 524 701 535 644 535 597 c 0
 535 462 446 400 342 400 c 0
 311 400 276 407 244 421 c 1
 250 332 250 214 250 15 c 0
 250 6 245 0 234 -4 c 2
 197 -19 l 1
 176 -29 170 -14 170 -3 c 0
 170 8 170 20 170 31 c 0
 170 407 129 524 78 663 c 0
EndSplineSet
Colour: ffda6b
EndChar

StartChar: _.num.3
Encoding: 65614 -1 78
GlifName: _.num.3
Width: 836
VWidth: 1331
GlyphClass: 2
Flags: HMW
LayerCount: 2
Fore
SplineSet
78 663 m 0
 71 675 78 686 85 697 c 2
 142 784 l 2
 149 795 161 785 163 780 c 0
 175 737 186 696 196 657 c 0
 221 578 241 519 326 519 c 0
 327 519 329 519 330 519 c 0
 403 519 423 556 423 602 c 0
 423 638 410 680 399 714 c 0
 394 726 399 732 406 736 c 2
 456 769 l 2
 463 774 473 780 477 766 c 0
 502 702 513 646 513 599 c 0
 513 586 512 573 510 561 c 1
 539 541 567 532 591 532 c 0
 637 532 670 567 670 635 c 0
 670 664 664 699 651 740 c 0
 647 752 651 758 658 763 c 2
 708 795 l 2
 715 800 725 805 729 791 c 0
 751 734 761 681 761 634 c 0
 761 501 684 417 589 417 c 0
 550 417 508 431 468 461 c 1
 432 419 378 400 319 400 c 0
 292 400 265 406 239 417 c 1
 248 328 252 240 252 143 c 0
 252 102 251 60 250 15 c 0
 250 6 245 0 234 -4 c 2
 197 -19 l 1
 176 -29 170 -14 170 -3 c 0
 170 1 170 7 170 11 c 0
 170 307 130 522 78 663 c 0
EndSplineSet
Colour: ffda6b
EndChar

StartChar: _.num.4.fa
Encoding: 65615 -1 79
GlifName: _.num.4.fa
Width: 701
VWidth: 1331
GlyphClass: 2
Flags: HMW
LayerCount: 2
Fore
SplineSet
231 608 m 1
 235 708 291 798 420 798 c 0
 491 798 567 770 615 716 c 1
 626 710 619 702 614 695 c 2
 591 662 l 2
 586 656 579 654 568 661 c 0
 516 692 473 705 437 705 c 0
 360 705 319 645 319 583 c 0
 319 553 328 523 346 498 c 1
 384 478 425 468 469 468 c 0
 505 468 544 475 582 490 c 0
 594 495 603 493 605 486 c 2
 621 439 l 2
 623 430 632 424 620 418 c 0
 557 385 495 370 437 370 c 0
 359 370 285 400 237 439 c 1
 248 343 252 248 252 143 c 0
 252 102 251 60 250 15 c 0
 250 6 245 0 234 -4 c 2
 197 -19 l 1
 176 -29 170 -14 170 -3 c 0
 170 1 170 7 170 11 c 0
 170 307 130 522 78 663 c 0
 71 675 78 686 85 697 c 2
 142 784 l 2
 149 795 161 785 163 780 c 0
 172 750 181 721 188 693 c 0
 199 661 214 633 231 608 c 1
EndSplineSet
Colour: ffda6b
EndChar

StartChar: _.num.5.fa
Encoding: 65617 -1 81
GlifName: _.num.5.fa
Width: 744
VWidth: 1331
GlyphClass: 2
Flags: HMW
LayerCount: 2
Fore
SplineSet
75 182 m 0
 75 290 131 446 288 652 c 1
 273 664 259 677 244 688 c 0
 222 705 232 715 234 720 c 2
 271 779 l 2
 275 785 278 795 287 795 c 0
 292 795 299 792 308 784 c 0
 468 650 669 427 669 188 c 0
 669 186 669 184 669 182 c 0
 669 51 584 -6 504 -6 c 0
 445 -6 387 25 367 80 c 1
 330 27 276 0 224 0 c 0
 147 0 75 60 75 182 c 0
508 128 m 0
 546 128 578 150 578 184 c 0
 578 284 515 433 362 585 c 1
 218 399 171 275 171 202 c 0
 171 143 201 116 235 116 c 0
 278 116 328 158 330 230 c 1
 330 237 l 2
 330 242 331 251 345 255 c 2
 401 269 l 1
 411 273 415 259 415 257 c 2
 415 248 l 1
 417 159 465 128 508 128 c 0
EndSplineSet
Colour: ffda6b
EndChar

StartChar: _.num.6.fa
Encoding: 65619 -1 83
GlifName: _.num.6.fa
Width: 722
VWidth: 1331
GlyphClass: 2
Flags: HMW
LayerCount: 2
Fore
SplineSet
79 38 m 0
 170 154 249 251 336 340 c 1
 208 365 130 468 130 570 c 0
 130 685 229 799 467 799 c 0
 470 799 474 799 477 799 c 1
 489 804 491 794 495 785 c 2
 508 748 l 2
 512 741 509 731 497 729 c 0
 299 676 234 614 234 561 c 0
 234 495 335 444 412 444 c 0
 431 444 449 447 463 454 c 1
 512 496 567 536 629 578 c 0
 633 580 648 581 647 569 c 2
 636 464 l 2
 635 452 633 439 621 434 c 0
 569 403 512 362 449 309 c 0
 353 228 244 117 130 -26 c 0
 124 -33 110 -42 99 -21 c 2
 80 15 l 1
 74 24 74 32 79 38 c 0
EndSplineSet
Colour: ffda6b
EndChar

StartChar: _.num.7
Encoding: 65621 -1 85
GlifName: _.num.7
Width: 669
VWidth: 1331
GlyphClass: 2
Flags: HMW
LayerCount: 2
Fore
SplineSet
80 646 m 0
 71 657 76 668 82 679 c 1
 124 775 l 2
 129 786 143 779 145 775 c 0
 239 585 295 431 334 252 c 1
 373 431 430 585 524 775 c 0
 526 779 539 786 545 775 c 1
 587 679 l 1
 593 668 598 657 589 646 c 0
 515 516 380 272 378 21 c 0
 378 6 335 -17 310 -17 c 0
 299 -17 291 -13 291 -1 c 2
 291 21 l 1
 290 272 154 516 80 646 c 0
EndSplineSet
Colour: ffda6b
EndChar

StartChar: _.num.8
Encoding: 65622 -1 86
GlifName: _.num.8
Width: 669
VWidth: 1331
GlyphClass: 2
Flags: HMW
LayerCount: 2
Fore
SplineSet
80 118 m 0
 154 248 290 493 291 743 c 1
 291 766 l 2
 291 778 299 782 310 782 c 0
 335 782 378 758 378 743 c 0
 380 493 515 248 589 118 c 0
 598 108 593 97 587 85 c 2
 545 -11 l 1
 539 -22 526 -15 524 -10 c 0
 430 180 373 335 334 512 c 1
 295 335 239 180 145 -10 c 0
 143 -15 129 -22 124 -11 c 2
 82 85 l 2
 76 97 71 108 80 118 c 0
EndSplineSet
Colour: ffda6b
EndChar

StartChar: _.num.9
Encoding: 65623 -1 87
GlifName: _.num.9
Width: 604
VWidth: 1331
GlyphClass: 2
Flags: HMW
LayerCount: 2
Fore
SplineSet
75 532 m 0
 75 654 167 798 267 800 c 1
 421 798 441 550 448 426 c 1
 464 277 493 159 526 69 c 0
 533 58 525 48 518 37 c 2
 462 -51 l 2
 455 -62 442 -52 441 -47 c 0
 392 111 370 241 360 378 c 1
 321 369 286 365 256 365 c 0
 124 365 75 443 75 532 c 0
152 552 m 0
 152 511 186 475 291 475 c 0
 310 475 330 477 353 479 c 1
 346 560 322 678 251 679 c 0
 219 679 152 610 152 552 c 0
EndSplineSet
Colour: ffda6b
EndChar

StartChar: _.sing.backslash
Encoding: 65624 -1 88
GlifName: _.sing.backslash
Width: 553
VWidth: 1197
GlyphClass: 2
Flags: HMW
LayerCount: 2
Fore
SplineSet
75 800 m 1
 176 800 l 1
 478 -1 l 1
 377 -1 l 1
 75 800 l 1
EndSplineSet
Colour: ffda6b
EndChar

StartChar: _.sing.slash
Encoding: 65625 -1 89
GlifName: _.sing.slash
Width: 553
VWidth: 1197
GlyphClass: 2
Flags: HMW
LayerCount: 2
Fore
SplineSet
75 -1 m 1
 377 800 l 1
 478 800 l 1
 176 -1 l 1
 75 -1 l 1
EndSplineSet
Colour: ffda6b
EndChar

StartChar: _.sing.tajob
Encoding: 65626 -1 90
GlifName: _.sing.tajob
Width: 315
VWidth: 1197
GlyphClass: 2
Flags: HMW
LayerCount: 2
Fore
SplineSet
75 84 m 1
 157 166 l 1
 240 84 l 1
 157 1 l 1
 75 84 l 1
101 795 m 1
 199 795 l 1
 183 260 l 1
 117 260 l 1
 101 795 l 1
EndSplineSet
Colour: ffda6b
EndChar

StartChar: _.sing.soal
Encoding: 65627 -1 91
GlifName: _.sing.soal
Width: 531
VWidth: 1304
GlyphClass: 2
Flags: HMW
LayerCount: 2
Fore
SplineSet
75 612 m 0
 75 733 179 802 276 802 c 0
 360 802 441 754 456 657 c 1
 456 541 l 1
 360 541 l 1
 360 631 354 700 256 700 c 0
 217 700 176 674 176 625 c 0
 176 598 187 565 217 525 c 0
 298 419 336 403 336 253 c 1
 229 253 l 1
 229 282 l 2
 229 423 75 482 75 612 c 0
203 84 m 1
 286 166 l 1
 368 84 l 1
 286 1 l 1
 203 84 l 1
EndSplineSet
Colour: ffda6b
EndChar

StartChar: _.sing.beezafeh
Encoding: 65628 -1 92
GlifName: _.sing.beezafeh
Width: 550
VWidth: 1352
GlyphClass: 2
Flags: HMW
LayerCount: 2
Fore
SplineSet
75 250 m 1
 75 351 l 1
 225 351 l 1
 225 501 l 1
 325 501 l 1
 325 351 l 1
 475 351 l 1
 475 250 l 1
 325 250 l 1
 325 101 l 1
 225 101 l 1
 225 250 l 1
 75 250 l 1
EndSplineSet
Colour: ffda6b
EndChar

StartChar: _.sing.menha
Encoding: 65629 -1 93
GlifName: _.sing.menha
Width: 550
VWidth: 0
GlyphClass: 2
Flags: HMW
LayerCount: 2
Fore
SplineSet
75 250 m 1
 75 351 l 1
 475 351 l 1
 475 250 l 1
 75 250 l 1
EndSplineSet
Colour: ffda6b
EndChar

StartChar: _.sing.khateh_tire
Encoding: 65630 -1 94
GlifName: _.sing.khateh_tire
Width: 250
VWidth: 0
GlyphClass: 2
Flags: HMW
LayerCount: 2
Fore
SplineSet
75 -100 m 1
 75 300 l 1
 175 300 l 1
 175 -100 l 1
 75 -100 l 1
75 401 m 1
 75 801 l 1
 175 801 l 1
 175 401 l 1
 75 401 l 1
EndSplineSet
Colour: ffda6b
EndChar

StartChar: _.sing.virgul
Encoding: 65631 -1 95
GlifName: _.sing.virgul
Width: 282
VWidth: 1197
GlyphClass: 2
Flags: HMW
LayerCount: 2
Fore
SplineSet
146 0 m 0
 98 0 75 53 75 99 c 0
 75 160 113 228 170 283 c 1
 207 246 l 1
 187 225 159 195 159 161 c 0
 159 140 173 119 192 100 c 0
 201 90 207 75 207 60 c 0
 207 27 179 0 146 0 c 0
EndSplineSet
Colour: ffda6b
EndChar

StartChar: _.sing.dot_virgul
Encoding: 65632 -1 96
GlifName: _.sing.dot_virgul
Width: 315
VWidth: 1304
GlyphClass: 2
Flags: HMW
LayerCount: 2
Fore
SplineSet
75 84 m 1
 157 166 l 1
 240 84 l 1
 157 1 l 1
 75 84 l 1
160 250 m 0
 112 250 89 304 89 349 c 0
 89 410 126 478 183 533 c 1
 220 496 l 1
 200 475 173 445 173 411 c 0
 173 390 186 368 205 349 c 0
 214 339 220 326 220 310 c 0
 220 277 193 250 160 250 c 0
EndSplineSet
Colour: ffda6b
EndChar

StartChar: _.sing.2noqte
Encoding: 65633 -1 97
GlifName: _.sing.2noqte
Width: 315
VWidth: 1352
GlyphClass: 2
Flags: HMW
LayerCount: 2
Fore
SplineSet
75 84 m 1
 157 166 l 1
 240 84 l 1
 157 1 l 1
 75 84 l 1
75 324 m 1
 157 407 l 1
 240 324 l 1
 157 241 l 1
 75 324 l 1
EndSplineSet
Colour: ffda6b
EndChar

StartChar: _.sing.noqte
Encoding: 65634 -1 98
GlifName: _.sing.noqte
Width: 316
VWidth: 1352
GlyphClass: 2
Flags: HMW
LayerCount: 2
Fore
SplineSet
75 84 m 1
 159 166 l 1
 241 84 l 1
 159 1 l 1
 75 84 l 1
EndSplineSet
Colour: ffda6b
EndChar

StartChar: _.sing.gheiomeh.right
Encoding: 65635 -1 99
GlifName: _.sing.gheiomeh.right
Width: 577
VWidth: 1352
GlyphClass: 2
Flags: HMW
LayerCount: 2
Fore
SplineSet
75 200 m 0
 75 302 117 405 198 500 c 1
 272 433 l 1
 210 346 178 267 178 191 c 0
 178 115 210 42 272 -32 c 1
 198 -97 l 1
 116 -2 75 99 75 200 c 0
305 200 m 0
 305 302 347 405 428 500 c 1
 502 433 l 1
 439 346 408 268 408 192 c 0
 408 116 440 43 502 -32 c 1
 428 -97 l 1
 346 -2 305 99 305 200 c 0
EndSplineSet
Colour: ffda6b
EndChar

StartChar: _.sing.gheiomeh.left
Encoding: 65636 -1 100
GlifName: _.sing.gheiomeh.left
Width: 577
VWidth: 1352
GlyphClass: 2
Flags: HMW
LayerCount: 2
Fore
SplineSet
75 -32 m 1
 137 43 169 116 169 192 c 0
 169 268 138 346 75 433 c 1
 149 500 l 1
 230 405 272 302 272 200 c 0
 272 99 231 -2 149 -97 c 1
 75 -32 l 1
305 -32 m 1
 367 43 399 116 399 192 c 0
 399 268 368 346 305 433 c 1
 379 500 l 1
 460 405 502 302 502 200 c 0
 502 99 461 -2 379 -97 c 1
 305 -32 l 1
EndSplineSet
Colour: ffda6b
EndChar

StartChar: _.sing.parantez.right
Encoding: 65637 -1 101
GlifName: _.sing.parantez.right
Width: 379
VWidth: 1352
GlyphClass: 2
Flags: HMW
LayerCount: 2
Fore
SplineSet
75 301 m 0
 75 441 137 580 262 759 c 1
 304 719 l 1
 218 595 174 446 174 298 c 0
 174 150 218 2 304 -122 c 1
 263 -160 l 1
 138 20 75 161 75 301 c 0
EndSplineSet
Colour: ffda6b
EndChar

StartChar: _.sing.parantez.left
Encoding: 65638 -1 102
GlifName: _.sing.parantez.left
Width: 379
VWidth: 1352
GlyphClass: 2
Flags: HMW
LayerCount: 2
Fore
SplineSet
75 -122 m 1
 161 2 204 150 204 298 c 0
 204 446 161 595 75 719 c 1
 117 759 l 1
 242 580 304 441 304 301 c 0
 304 161 241 20 116 -160 c 1
 75 -122 l 1
EndSplineSet
Colour: ffda6b
EndChar

StartChar: _.sing.parantez_tazeeni.right
Encoding: 65639 -1 103
GlifName: _.sing.parantez_tazeeni.right
Width: 553
VWidth: 0
GlyphClass: 2
Flags: HMW
LayerCount: 2
Fore
SplineSet
75 342 m 1
 97 410 l 1
 148 393 l 2
 164 388 180 381 197 375 c 0
 204 371 212 367 221 365 c 1
 225 393 231 423 241 453 c 1
 241 513 l 1
 263 513 l 1
 294 589 341 669 404 759 c 1
 446 719 l 1
 372 612 330 488 319 361 c 1
 346 372 376 384 404 393 c 2
 454 410 l 1
 478 342 l 1
 426 326 l 2
 394 316 358 308 324 298 c 1
 347 272 369 244 390 216 c 2
 422 173 l 1
 364 132 l 1
 334 175 l 2
 332 180 327 183 325 187 c 1
 341 77 382 -28 446 -122 c 1
 405 -160 l 1
 313 -27 254 85 229 191 c 1
 227 186 223 180 219 175 c 2
 187 132 l 1
 130 173 l 1
 161 216 l 1
 179 239 199 263 217 285 c 1
 217 301 l 1
 186 308 157 316 127 326 c 2
 75 342 l 1
EndSplineSet
Colour: ffda6b
EndChar

StartChar: _.sing.koroshe.right
Encoding: 65641 -1 105
GlifName: _.sing.koroshe.right
Width: 356
VWidth: 1197
GlyphClass: 2
Flags: HMW
LayerCount: 2
Fore
SplineSet
75 -202 m 1
 75 798 l 1
 281 798 l 1
 281 694 l 1
 175 694 l 1
 175 -97 l 1
 281 -97 l 1
 281 -202 l 1
 75 -202 l 1
EndSplineSet
Colour: ffda6b
EndChar

StartChar: _.sing.koroshe.left
Encoding: 65642 -1 106
GlifName: _.sing.koroshe.left
Width: 356
VWidth: 1197
GlyphClass: 2
Flags: HMW
LayerCount: 2
Fore
SplineSet
75 -99 m 1
 181 -99 l 1
 181 693 l 1
 75 693 l 1
 75 798 l 1
 281 798 l 1
 281 -202 l 1
 75 -202 l 1
 75 -99 l 1
EndSplineSet
Colour: ffda6b
EndChar

StartChar: _.sing.akolad.right
Encoding: 65643 -1 107
GlifName: _.sing.akolad.right
Width: 452
VWidth: 1197
GlyphClass: 2
Flags: HMW
LayerCount: 2
Fore
SplineSet
75 251 m 1
 75 349 l 1
 143 349 175 382 175 464 c 2
 175 620 l 2
 175 701 174 800 377 800 c 1
 377 700 l 1
 295 700 274 674 274 619 c 2
 274 474 l 2
 274 421 257 321 203 300 c 1
 257 279 274 180 274 127 c 2
 274 -19 l 2
 274 -73 295 -100 377 -100 c 1
 377 -200 l 1
 174 -200 175 -101 175 -20 c 2
 175 136 l 2
 175 218 143 251 75 251 c 1
EndSplineSet
Colour: ffda6b
EndChar

StartChar: _.sing.akolad.left
Encoding: 65644 -1 108
GlifName: _.sing.akolad.left
Width: 452
VWidth: 1197
GlyphClass: 2
Flags: HMW
LayerCount: 2
Fore
SplineSet
75 -100 m 1
 156 -100 176 -73 176 -19 c 2
 176 127 l 2
 176 180 194 279 249 300 c 1
 194 321 176 421 176 474 c 2
 176 619 l 2
 176 674 156 700 75 700 c 1
 75 800 l 1
 277 800 277 701 277 620 c 2
 277 464 l 2
 277 382 309 349 377 349 c 1
 377 251 l 1
 309 251 277 218 277 136 c 2
 277 -20 l 2
 277 -101 277 -200 75 -200 c 1
 75 -100 l 1
EndSplineSet
Colour: ffda6b
EndChar

StartChar: _.mark.maad
Encoding: 65645 -1 109
GlifName: _.mark.maad
Width: 0
VWidth: 1352
GlyphClass: 2
Flags: HMW
LayerCount: 2
Fore
SplineSet
0 26 m 1
 32 92 l 2
 44 119 64 138 89 138 c 0
 95 138 101 137 107 135 c 0
 146 124 179 119 210 119 c 0
 259 119 302 131 359 148 c 1
 366 74 l 1
 310 55 261 42 210 42 c 0
 172 42 131 49 86 65 c 1
 75 45 65 22 54 -0 c 1
 0 26 l 1
EndSplineSet
Colour: ffda6b
EndChar

StartChar: _.mark.fatheh
Encoding: 65646 -1 110
GlifName: _.mark.fatheh
Width: 0
VWidth: 2310
GlyphClass: 2
Flags: HMW
LayerCount: 2
Fore
SplineSet
0 45 m 1
 256 165 l 1
 278 114 l 1
 23 -5 l 1
 0 45 l 1
EndSplineSet
Colour: ffda6b
EndChar

StartChar: _.mark.kasreh
Encoding: 65647 -1 111
GlifName: _.mark.kasreh
Width: 0
VWidth: 2384
GlyphClass: 2
Flags: HMW
LayerCount: 2
Fore
SplineSet
0 -125 m 1
 256 -6 l 1
 278 -56 l 1
 23 -175 l 1
 0 -125 l 1
EndSplineSet
Colour: ffda6b
EndChar

StartChar: _.mark.zameh
Encoding: 65648 -1 112
GlifName: _.mark.zameh
Width: 0
VWidth: 2277
GlyphClass: 2
Flags: HMW
LayerCount: 2
Fore
SplineSet
202 287 m 0
 247 287 279 243 279 196 c 0
 279 155 255 109 193 80 c 2
 23 1 l 1
 0 50 l 1
 143 117 l 1
 124 139 111 165 111 193 c 0
 111 242 146 287 202 287 c 0
165 193 m 0
 165 179 172 164 179 155 c 2
 191 140 l 1
 215 153 229 173 229 191 c 0
 229 206 219 220 197 228 c 1
 173 223 165 208 165 193 c 0
EndSplineSet
Colour: ffda6b
EndChar

StartChar: _.mark.tanvin_fatheh
Encoding: 65649 -1 113
GlifName: _.mark.tanvin_fatheh
Width: 0
VWidth: 2280
GlyphClass: 2
Flags: HMW
LayerCount: 2
Fore
SplineSet
0 49 m 1
 256 168 l 1
 279 118 l 1
 23 -0 l 1
 0 49 l 1
0 170 m 1
 256 289 l 1
 279 240 l 1
 23 120 l 1
 0 170 l 1
EndSplineSet
Colour: ffda6b
EndChar

StartChar: _.mark.tanvin_kasreh
Encoding: 65650 -1 114
GlifName: _.mark.tanvin_kasreh
Width: 0
VWidth: 2413
GlyphClass: 2
Flags: HMW
LayerCount: 2
Fore
SplineSet
0 -120 m 1
 256 -1 l 1
 279 -51 l 1
 23 -170 l 1
 0 -120 l 1
0 -240 m 1
 256 -122 l 1
 279 -171 l 1
 23 -291 l 1
 0 -240 l 1
EndSplineSet
Colour: ffda6b
EndChar

StartChar: _.mark.tanvin_zameh
Encoding: 65651 -1 115
GlifName: _.mark.tanvin_zameh
Width: 0
VWidth: 2273
GlyphClass: 2
Flags: HMW
LayerCount: 2
Fore
SplineSet
226 287 m 0
 271 287 304 243 304 196 c 0
 304 155 280 109 218 80 c 2
 48 1 l 1
 25 50 l 1
 66 70 l 1
 70 79 73 90 73 100 c 0
 73 114 68 125 56 125 c 0
 52 125 48 125 43 122 c 2
 25 111 l 1
 0 151 l 1
 21 164 l 2
 32 170 42 172 51 172 c 0
 88 172 109 130 109 100 c 0
 109 96 109 93 108 90 c 1
 167 117 l 1
 148 139 136 165 136 193 c 0
 136 242 170 287 226 287 c 0
189 193 m 0
 189 179 196 164 203 155 c 2
 215 140 l 1
 239 153 253 173 253 191 c 0
 253 206 244 220 222 228 c 1
 198 223 189 208 189 193 c 0
EndSplineSet
Colour: ffda6b
EndChar

StartChar: _.mark.tashdid
Encoding: 65652 -1 116
GlifName: _.mark.tashdid
Width: 0
VWidth: 1833
GlyphClass: 2
Flags: HMW
LayerCount: 2
Fore
SplineSet
0 88 m 0
 0 92 0 96 0 100 c 2
 7 168 l 1
 51 164 l 1
 47 114 l 2
 47 111 47 109 47 106 c 0
 47 73 67 57 88 57 c 0
 110 57 133 77 133 116 c 2
 133 166 l 1
 177 166 l 1
 177 117 l 1
 179 73 199 55 218 55 c 0
 237 55 255 73 255 103 c 2
 255 164 l 1
 301 168 l 1
 301 101 l 2
 302 32 256 0 216 0 c 0
 189 0 164 14 157 40 c 1
 147 15 115 0 83 -0 c 0
 42 0 0 25 0 88 c 0
EndSplineSet
Colour: ffda6b
EndChar

StartChar: _.mark.hamze
Encoding: 65653 -1 117
GlifName: _.mark.hamze
Width: 0
VWidth: 1841
GlyphClass: 2
Flags: HMW
LayerCount: 2
Fore
SplineSet
0 49 m 1
 74 84 l 1
 47 106 34 138 34 170 c 0
 34 228 75 286 147 286 c 0
 167 286 189 282 213 272 c 1
 202 223 l 1
 185 227 170 229 157 229 c 0
 107 229 84 201 84 171 c 0
 84 146 99 121 127 108 c 1
 256 168 l 1
 278 118 l 1
 23 -0 l 1
 0 49 l 1
EndSplineSet
Colour: ffda6b
EndChar

StartChar: _.mark.sakon
Encoding: 65654 -1 118
GlifName: _.mark.sakon
Width: 0
VWidth: 2099
GlyphClass: 2
Flags: HMW
LayerCount: 2
Fore
SplineSet
81 -0 m 0
 35 0 0 39 0 85 c 0
 0 132 34 168 81 168 c 0
 122 168 144 146 158 118 c 0
 162 108 164 97 164 85 c 0
 164 47 142 18 113 7 c 0
 103 2 93 0 81 -0 c 0
80 120 m 0
 60 120 43 104 43 84 c 0
 43 64 60 47 80 47 c 0
 100 47 118 63 118 84 c 0
 118 104 100 120 80 120 c 0
EndSplineSet
Colour: ffda6b
EndChar

StartChar: _.mark.alef
Encoding: 65655 -1 119
GlifName: _.mark.alef
Width: 0
VWidth: 2091
GlyphClass: 2
Flags: HMW
LayerCount: 2
Fore
SplineSet
0 216 m 1
 50 235 l 1
 81 151 89 92 89 -3 c 1
 41 -3 l 1
 41 83 28 140 0 216 c 1
EndSplineSet
Colour: ffda6b
EndChar

StartChar: _.sing.momaiez
Encoding: 65656 -1 120
GlifName: _.sing.momaiez
Width: 458
VWidth: 1352
GlyphClass: 2
Flags: HMW
LayerCount: 2
Fore
SplineSet
75 -173 m 1
 288 412 l 1
 383 378 l 1
 169 -207 l 1
 75 -173 l 1
EndSplineSet
Colour: ffda6b
EndChar

StartChar: _.sing.hezare
Encoding: 65657 -1 121
GlifName: _.sing.hezare
Width: 272
VWidth: 1197
GlyphClass: 2
Flags: HMW
LayerCount: 2
Fore
SplineSet
75 900 m 1
 197 900 l 1
 155 700 l 1
 116 700 l 1
 75 900 l 1
EndSplineSet
Colour: ffda6b
EndChar

StartChar: _.sing.darsad
Encoding: 65658 -1 122
GlifName: _.sing.darsad
Width: 715
VWidth: 1197
GlyphClass: 2
Flags: HMW
LayerCount: 2
Fore
SplineSet
75 587 m 1
 157 670 l 1
 240 587 l 1
 157 505 l 1
 75 587 l 1
156 -1 m 1
 458 800 l 1
 559 800 l 1
 257 -1 l 1
 156 -1 l 1
474 244 m 1
 558 326 l 1
 640 244 l 1
 558 161 l 1
 474 244 l 1
EndSplineSet
Colour: ffda6b
EndChar

StartChar: _.sing.mosavi
Encoding: 65659 -1 123
GlifName: _.sing.mosavi
Width: 550
VWidth: 1197
GlyphClass: 2
Flags: HMW
LayerCount: 2
Fore
SplineSet
75 200 m 1
 75 300 l 1
 475 300 l 1
 475 200 l 1
 75 200 l 1
75 400 m 1
 75 501 l 1
 474 501 l 1
 474 400 l 1
 75 400 l 1
EndSplineSet
Colour: ffda6b
EndChar

StartChar: _.beh_k.init
Encoding: 65661 -1 125
GlifName: _.beh_k.init
Width: 363
VWidth: 1197
GlyphClass: 2
UnlinkRmOvrlpSave: 1
Flags: HMW
LayerCount: 2
Fore
SplineSet
-50 49 m 0
 -50 76 -27 100 -1 100 c 2
 18 100 l 2
 109 100 169 117 207 145 c 1
 208 149 208 154 208 160 c 0
 208 210 182 313 168 354 c 0
 164 369 171 376 177 381 c 2
 226 425 l 2
 238 435 246 424 248 417 c 0
 272 347 288 288 288 209 c 0
 288 75 214 0 18 -0 c 2
 -1 -0 l 2
 -25 0 -50 24 -50 49 c 0
EndSplineSet
Colour: ffda6b
EndChar

StartChar: _.beh_k.medi
Encoding: 65662 -1 126
GlifName: _.beh_k.medi
Width: 433
VWidth: 1304
GlyphClass: 2
UnlinkRmOvrlpSave: 1
Flags: HMW
LayerCount: 2
Fore
SplineSet
-50 50 m 0
 -49 75 -26 99 -1 100 c 1
 19 100 l 2
 81 100 200 107 200 166 c 2
 200 290 l 2
 200 304 202 315 220 320 c 2
 254 329 l 2
 270 333 279 327 279 310 c 2
 279 166 l 2
 279 119 341 100 433 100 c 1
 433 -0 l 1
 325 0 266 30 236 69 c 1
 200 28 129 0 18 -0 c 2
 -2 -0 l 1
 -27 1 -50 24 -50 50 c 0
EndSplineSet
Colour: ffda6b
EndChar

StartChar: _.sing.3noqte
Encoding: 65663 -1 127
GlifName: _.sing.3noqte
Width: 766
VWidth: 1304
GlyphClass: 2
Flags: HMW
LayerCount: 2
Fore
SplineSet
75 84 m 1
 159 166 l 1
 240 84 l 1
 159 1 l 1
 75 84 l 1
305 84 m 1
 389 166 l 1
 470 84 l 1
 389 1 l 1
 305 84 l 1
526 84 m 1
 608 166 l 1
 691 84 l 1
 608 1 l 1
 526 84 l 1
EndSplineSet
Colour: ffda6b
EndChar

StartChar: s.khat_tire
Encoding: 8208 8208 138
GlifName: s.khat_tire
Width: 504
VWidth: 0
GlyphClass: 2
Flags: HMW
LayerCount: 2
Fore
SplineSet
55 229 m 1
 55 307 l 1
 451 307 l 1
 451 229 l 1
 55 229 l 1
EndSplineSet
Colour: d7d7d7
EndChar

StartChar: s.zwj
Encoding: 8205 8205 174
GlifName: s.zwj
Width: 0
VWidth: 1331
GlyphClass: 2
Flags: HMW
LayerCount: 2
Fore
SplineSet
25 -327 m 1
 -25 -327 l 1
 -25 579 l 1
 -111 491 l 1
 -141 521 l 1
 -30 631 l 1
 -141 740 l 1
 -111 772 l 1
 0 660 l 1
 111 772 l 1
 141 740 l 1
 30 631 l 1
 141 521 l 1
 111 491 l 1
 25 579 l 1
 25 -327 l 1
EndSplineSet
Colour: d7d7d7
EndChar

StartChar: s.tagsim
Encoding: 247 247 182
GlifName: s.tagsim
Width: 564
VWidth: 1278
GlyphClass: 2
Flags: HMW
LayerCount: 2
Fore
SplineSet
59 352 m 1
 59 429 l 1
 506 429 l 1
 506 352 l 1
 59 352 l 1
234 204 m 1
 234 299 l 1
 330 299 l 1
 330 204 l 1
 234 204 l 1
234 482 m 1
 234 577 l 1
 330 577 l 1
 330 482 l 1
 234 482 l 1
EndSplineSet
Colour: d7d7d7
EndChar

StartChar: s.zwnj
Encoding: 8204 8204 215
GlifName: s.zwnj
Width: 0
VWidth: 1331
GlyphClass: 2
Flags: HMW
LayerCount: 2
Fore
SplineSet
-25 -308 m 1
 -25 710 l 1
 25 710 l 1
 25 -308 l 1
 -25 -308 l 1
EndSplineSet
Colour: d7d7d7
EndChar

StartChar: s.dotted_circle
Encoding: 9676 9676 220
GlifName: s.dotted_circle
Width: 576
VWidth: 1890
GlyphClass: 2
Flags: HMW
LayerCount: 2
Fore
SplineSet
60 181 m 0
 60 196 67 203 82 203 c 0
 97 203 104 196 104 182 c 2
 104 180 l 2
 104 166 97 159 82 159 c 0
 67 159 60 166 60 181 c 0
76 103 m 0
 76 118 83 126 98 126 c 0
 113 126 120 118 120 103 c 0
 120 88 113 80 98 80 c 0
 83 80 76 88 76 103 c 0
76 259 m 0
 76 274 83 282 98 282 c 0
 113 282 120 274 120 259 c 0
 120 244 113 236 99 236 c 0
 84 236 76 244 76 259 c 0
120 34 m 0
 120 49 127 56 142 57 c 0
 157 56 164 49 165 34 c 0
 164 19 157 12 142 12 c 0
 127 12 120 19 120 34 c 0
120 326 m 0
 120 341 127 348 142 349 c 0
 157 348 164 341 165 326 c 0
 164 311 157 304 142 304 c 0
 127 304 120 311 120 326 c 0
187 -8 m 0
 187 7 195 14 210 14 c 0
 225 14 233 7 233 -8 c 0
 233 -23 225 -30 210 -30 c 0
 195 -30 187 -23 187 -8 c 0
187 372 m 0
 187 387 195 394 210 394 c 0
 225 394 233 387 233 372 c 0
 233 357 225 350 210 350 c 0
 195 350 187 357 187 372 c 0
310 -26 m 0
 310 -41 303 -48 288 -48 c 0
 273 -48 266 -41 265 -26 c 0
 266 -11 273 -4 288 -3 c 0
 303 -4 310 -11 310 -26 c 0
288 410 m 0
 303 410 310 403 310 388 c 0
 310 373 303 366 288 365 c 0
 273 366 266 373 265 388 c 0
 266 403 273 410 288 410 c 0
344 -8 m 0
 344 7 352 14 367 14 c 0
 382 14 390 7 390 -8 c 0
 390 -22 382 -30 367 -31 c 0
 352 -30 344 -22 344 -8 c 0
344 372 m 0
 344 387 352 394 367 394 c 0
 382 394 390 387 390 372 c 0
 390 358 382 350 367 349 c 0
 352 350 344 358 344 372 c 0
412 34 m 0
 412 49 419 56 434 57 c 0
 449 56 456 49 456 34 c 0
 456 19 449 12 434 12 c 0
 419 12 412 19 412 34 c 0
412 326 m 0
 412 341 419 348 434 349 c 0
 449 348 456 341 456 326 c 0
 456 311 449 304 434 304 c 0
 419 304 412 311 412 326 c 0
456 103 m 0
 456 118 463 126 478 126 c 0
 492 126 500 118 501 103 c 0
 500 88 492 80 478 80 c 0
 463 80 456 88 456 103 c 0
456 259 m 0
 456 274 463 282 478 282 c 0
 492 282 500 274 501 259 c 0
 500 244 492 236 478 236 c 0
 463 236 456 244 456 259 c 0
472 181 m 0
 472 196 479 203 494 203 c 0
 509 203 516 196 517 182 c 2
 517 180 l 2
 516 166 509 159 494 159 c 0
 479 159 472 166 472 181 c 0
EndSplineSet
Colour: d7d7d7
EndChar

StartChar: s.figure_dash
Encoding: 8210 8210 224
GlifName: s.figure_dash
Width: 600
VWidth: 0
GlyphClass: 2
Flags: HMW
LayerCount: 2
Fore
SplineSet
55 229 m 1
 55 307 l 1
 547 307 l 1
 547 229 l 1
 55 229 l 1
EndSplineSet
Colour: d7d7d7
EndChar

StartChar: s.em_dash
Encoding: 8212 8212 263
GlifName: s.em_dash
Width: 1200
VWidth: 1175
GlyphClass: 2
Flags: HMW
LayerCount: 2
Fore
SplineSet
55 229 m 1
 55 307 l 1
 1147 307 l 1
 1147 229 l 1
 55 229 l 1
EndSplineSet
Colour: d7d7d7
EndChar

StartChar: s.bullet
Encoding: 8226 8226 278
GlifName: s.bullet
Width: 602
VWidth: 1331
GlyphClass: 2
Flags: HMW
LayerCount: 2
Fore
SplineSet
532 432 m 0
 532 369 509 315 464 270 c 0
 419 225 365 202 302 202 c 0
 245 202 194 223 147 266 c 0
 100 309 77 357 77 410 c 0
 77 483 99 542 142 585 c 0
 185 628 236 650 295 650 c 0
 368 650 426 630 468 591 c 0
 510 552 532 499 532 432 c 0
EndSplineSet
Colour: d7d7d7
EndChar

StartChar: s.en_dash
Encoding: 8211 8211 310
GlifName: s.en_dash
Width: 600
VWidth: 1175
GlyphClass: 2
Flags: HMW
LayerCount: 2
Fore
SplineSet
55 229 m 1
 55 307 l 1
 547 307 l 1
 547 229 l 1
 55 229 l 1
EndSplineSet
Colour: d7d7d7
EndChar

StartChar: s.horizontal_bar
Encoding: 8213 8213 316
GlifName: s.horizontal_bar
Width: 2400
VWidth: 1175
GlyphClass: 2
Flags: HMW
LayerCount: 2
Fore
SplineSet
55 229 m 1
 55 307 l 1
 2347 307 l 1
 2347 229 l 1
 55 229 l 1
EndSplineSet
Colour: d7d7d7
EndChar

StartChar: s.lrm
Encoding: 8206 8206 317
GlifName: s.lrm
Width: 0
VWidth: 1331
GlyphClass: 2
Flags: HMW
LayerCount: 2
Fore
SplineSet
-25 -308 m 1
 -25 676 l 1
 196 676 l 1
 106 759 l 1
 138 790 l 1
 280 651 l 1
 138 510 l 1
 106 544 l 1
 196 628 l 1
 22 628 l 1
 22 -308 l 1
 -25 -308 l 1
EndSplineSet
Colour: d7d7d7
EndChar

StartChar: s.rlm
Encoding: 8207 8207 346
GlifName: s.rlm
Width: 0
VWidth: 1331
GlyphClass: 2
Flags: HMW
LayerCount: 2
Fore
SplineSet
22 676 m 1
 22 -308 l 1
 -25 -308 l 1
 -25 628 l 1
 -196 628 l 1
 -108 544 l 1
 -138 510 l 1
 -280 651 l 1
 -138 790 l 1
 -108 759 l 1
 -196 676 l 1
 22 676 l 1
EndSplineSet
Colour: d7d7d7
EndChar

StartChar: _.sing.yeh_domBoride
Encoding: 65664 -1 400
GlifName: _.mark.he_yeh
Width: 376
VWidth: 1304
GlyphClass: 1
UnlinkRmOvrlpSave: 1
Flags: HMW
LayerCount: 2
Fore
SplineSet
267 89 m 2
 267 90 l 2
 267 95 259 100 242 104 c 0
 228 107 219 109 216 109 c 0
 197 114 188 124 188 141 c 0
 188 176 210 207 253 234 c 0
 266 241 277 245 285 245 c 1
 285 200 l 1
 261 200 240 187 222 162 c 1
 220 156 l 2
 220 152 232 146 255 138 c 0
 280 130 293 124 296 120 c 0
 299 115 301 106 301 92 c 0
 301 77 294 62 281 49 c 0
 244 12 176 -6 75 -6 c 1
 92 42 l 1
 171 42 225 53 253 75 c 0
 262 82 267 87 267 89 c 2
EndSplineSet
EndChar

StartChar: uni0000
Encoding: 0 0 401
GlifName: uni0000
Width: 497
VWidth: 0
GlyphClass: 2
Flags: HMW
LayerCount: 2
Fore
SplineSet
59 -251 m 1
 59 709 l 1
 438 709 l 1
 438 -251 l 1
 59 -251 l 1
105 -181 m 1
 387 -181 l 1
 387 648 l 1
 105 648 l 1
 105 -181 l 1
EndSplineSet
EndChar

StartChar: _.ghaf.medi
Encoding: 65665 -1 402
GlifName: _.ghaf.medi
Width: 564
VWidth: 0
GlyphClass: 2
Flags: HMW
LayerCount: 2
Fore
SplineSet
-50 50 m 0
 -50 76 -26 100 -1 100 c 2
 29 100 l 2
 120 100 180 117 218 145 c 1
 228 157 234 172 234 190 c 0
 234 259 160 368 12 459 c 0
 1 467 -6 480 -6 491 c 0
 -6 494 -5 497 -4 500 c 2
 14 556 l 2
 24 584 23 595 72 617 c 1
 441 745 l 2
 443 746 444 746 446 746 c 0
 454 746 458 737 458 724 c 0
 458 695 439 644 415 636 c 2
 90 522 l 1
 137 486 174 453 205 421 c 0
 224 399 245 374 260 351 c 0
 344 227 374 100 564 100 c 1
 564 -0 l 1
 421 0 344 63 290 138 c 1
 265 49 187 0 29 -0 c 2
 -1 -0 l 2
 -26 0 -50 24 -50 50 c 0
66 685 m 0
 66 702 76 730 88 734 c 2
 343 822 l 2
 344 822 344 823 345 823 c 0
 351 823 354 815 354 804 c 0
 354 788 348 766 337 762 c 2
 77 671 l 2
 76 671 75 670 74 670 c 0
 69 670 66 676 66 685 c 0
EndSplineSet
Colour: ffda6b
EndChar

StartChar: _.ghaf.init
Encoding: 65666 -1 403
GlifName: _.ghaf.init
Width: 533
VWidth: 0
GlyphClass: 2
Flags: HMW
LayerCount: 2
Fore
SplineSet
-50 50 m 0
 -50 76 -26 100 -1 100 c 2
 29 100 l 2
 120 100 180 117 218 145 c 1
 228 157 234 172 234 190 c 0
 234 259 160 368 12 459 c 0
 1 467 -6 480 -6 491 c 0
 -6 494 -5 497 -4 500 c 2
 14 556 l 2
 24 584 23 595 72 617 c 1
 441 745 l 2
 443 746 444 746 446 746 c 0
 454 746 458 737 458 724 c 0
 458 695 439 644 415 636 c 2
 90 522 l 1
 251 398 305 299 305 216 c 0
 305 189 300 163 290 139 c 1
 265 49 187 0 29 -0 c 2
 -1 -0 l 2
 -26 0 -50 24 -50 50 c 0
66 685 m 0
 66 702 76 730 88 734 c 2
 343 822 l 2
 344 822 344 823 345 823 c 0
 351 823 354 815 354 804 c 0
 354 788 348 766 337 762 c 2
 77 671 l 2
 76 671 75 670 74 670 c 0
 69 670 66 676 66 685 c 0
EndSplineSet
Colour: ffda6b
EndChar

StartChar: _.la.isol.fa
Encoding: 65667 -1 404
Width: 573
VWidth: 0
Flags: HMW
LayerCount: 2
Fore
SplineSet
75 81 m 0
 75 92 79 100 89 100 c 2
 99 100 l 2
 200 100 383 141 425 221 c 1
 411 667 l 2
 411 678 410 688 410 696 c 0
 410 734 415 743 446 770 c 2
 470 790 l 2
 477 796 483 800 488 800 c 0
 494 800 498 793 498 779 c 2
 498 284 l 2
 498 99 317 0 114 0 c 1
 96 14 75 56 75 81 c 0
91 592 m 0
 91 606 96 619 110 641 c 1
 127 667 l 2
 132 676 139 681 144 681 c 0
 149 681 154 676 157 665 c 2
 274 277 l 2
 277 267 278 258 278 249 c 0
 278 192 221 158 197 158 c 0
 191 158 187 160 186 164 c 1
 199 177 208 190 208 210 c 0
 208 221 205 235 200 250 c 2
 106 532 l 2
 96 562 91 578 91 592 c 0
EndSplineSet
Colour: ffda6b
EndChar

StartChar: _.la.fina.fa
Encoding: 65668 -1 405
Width: 656
VWidth: 0
Flags: HMW
LayerCount: 2
Fore
SplineSet
75 81 m 0
 75 92 79 100 89 100 c 2
 99 100 l 2
 200 100 362 141 405 221 c 1
 391 667 l 2
 390 681 390 693 390 702 c 0
 390 735 396 744 427 770 c 2
 450 790 l 2
 457 796 463 800 468 800 c 0
 475 800 478 793 478 779 c 2
 478 324 l 1
 482 182 507 100 656 100 c 1
 656 0 l 1
 519 0 455 51 427 124 c 1
 363 43 247 0 114 0 c 1
 96 14 75 56 75 81 c 0
91 592 m 0
 91 606 96 619 110 641 c 1
 127 667 l 2
 132 676 139 681 144 681 c 0
 149 681 154 676 157 665 c 2
 274 277 l 2
 277 268 278 260 278 252 c 0
 278 191 206 151 179 151 c 0
 174 151 170 153 169 156 c 1
 190 174 205 193 205 220 c 0
 205 229 204 239 200 250 c 2
 106 532 l 2
 96 562 91 578 91 592 c 0
EndSplineSet
Colour: ffda6b
EndChar

StartChar: _.sing.alef_maad
Encoding: 65671 -1 408
Width: 509
VWidth: 1352
Flags: HMW
LayerCount: 2
Fore
SplineSet
75 -47 m 0
 75 83 152 98 232 98 c 0
 257 98 283 97 307 97 c 0
 355 97 394 103 407 141 c 0
 409 147 414 150 418 149 c 0
 434 140 435 138 433 120 c 0
 421 19 358 7 290 7 c 0
 267 7 243 8 220 8 c 0
 165 8 116 0 98 -59 c 0
 94 -72 75 -57 75 -47 c 0
EndSplineSet
Colour: ffda6b
EndChar

StartChar: _.sing.star
Encoding: 65672 -1 409
Width: 553
VWidth: 1197
Flags: HMW
LayerCount: 2
Fore
SplineSet
75 543 m 1
 97 609 l 1
 148 593 l 2
 161 589 179 582 202 572 c 0
 225 562 240 557 246 555 c 1
 245 561 245 570 244 582 c 0
 243 594 243 603 242 609 c 0
 242 615 241 624 241 635 c 0
 241 646 241 655 241 660 c 2
 241 714 l 1
 311 714 l 1
 311 660 l 2
 311 623 309 588 305 555 c 1
 315 558 331 565 354 574 c 0
 377 583 393 590 404 593 c 2
 455 609 l 1
 478 543 l 1
 426 525 l 2
 415 522 398 518 375 512 c 0
 352 506 335 501 324 498 c 1
 330 491 352 464 390 417 c 1
 422 373 l 1
 366 332 l 1
 334 375 l 2
 314 402 295 432 277 463 c 1
 241 408 222 379 219 375 c 2
 187 332 l 1
 130 373 l 1
 161 417 l 2
 170 426 192 453 228 498 c 1
 217 501 200 506 177 512 c 0
 154 518 138 522 127 525 c 2
 75 543 l 1
EndSplineSet
Colour: ffda6b
EndChar

StartChar: _.sing.zarb
Encoding: 65673 -1 410
Width: 503
VWidth: 1279
Flags: HMW
LayerCount: 2
Fore
SplineSet
75 194 m 1
 181 300 l 1
 75 406 l 1
 146 477 l 1
 252 372 l 1
 358 477 l 1
 428 406 l 1
 322 300 l 1
 428 194 l 1
 358 123 l 1
 252 230 l 1
 146 123 l 1
 75 194 l 1
EndSplineSet
Colour: ffda6b
EndChar

StartChar: _.sing.khateh_amoodi
Encoding: 65674 -1 411
Width: 250
VWidth: 1331
Flags: HMW
LayerCount: 2
Fore
SplineSet
75 0 m 1
 75 341 l 1
 175 341 l 1
 175 0 l 1
 75 0 l 1
75 460 m 1
 75 801 l 1
 175 801 l 1
 175 460 l 1
 75 460 l 1
EndSplineSet
Colour: ffda6b
EndChar
